# Blender 4.4.1
# www.blender.org
mtllib Text1-4.mtl
o テキスト
v -0.600998 1.092815 0.085575
v -0.558998 1.092815 0.085575
v -0.213998 0.670815 0.085575
v -0.213998 0.625815 0.085575
v -0.502998 0.625815 0.085575
v -0.502998 0.401815 0.085575
v -0.600998 0.401815 0.085575
v -0.600998 0.625815 0.085575
v -0.673998 0.625815 0.085575
v -0.673998 0.713815 0.085575
v -0.600998 0.713815 0.085575
v -0.500998 0.907815 0.085575
v -0.502998 0.907815 0.085575
v -0.502998 0.713815 0.085575
v -0.344998 0.713815 0.085575
v -0.162998 0.668815 0.085575
v 0.080002 0.668815 0.085575
v 0.080002 0.575815 0.085575
v -0.162998 0.575815 0.085575
v 0.320002 1.083815 0.085575
v 0.418002 1.083815 0.085575
v 0.418002 0.401815 0.085575
v 0.320002 0.401815 0.085575
vn -0.0000 -0.0000 -1.0000
vn -0.0000 -1.0000 -0.0000
vn -0.0000 1.0000 -0.0000
vt 0.142857 0.000000
vt 0.000000 0.000000
vt 0.071429 0.000000
vt 0.785714 0.000000
vt 0.857143 0.000000
vt 0.714286 0.000000
vt 1.000000 0.000000
vt 0.928571 0.000000
vt 0.642857 0.000000
vt 0.571429 0.000000
vt 0.214286 0.000000
vt 0.285714 0.000000
vt 0.357143 0.000000
vt 0.500000 0.000000
vt 0.428571 0.000000
vt 0.666667 0.000000
vt 0.333333 0.000000
s 1
usemtl マテリアル
f 3/1/1 1/2/1 2/3/1
f 3/1/1 12/4/1 1/2/1
f 12/4/1 13/5/1 1/2/1
f 13/5/1 11/6/1 1/2/1
f 3/1/1 15/7/1 12/4/1
f 14/8/1 11/6/1 13/5/1
f 3/1/1 14/8/1 15/7/1
f 3/1/1 11/6/1 14/8/1
f 3/1/1 10/9/1 11/6/1
f 3/1/1 9/10/1 10/9/1
f 4/11/1 9/10/1 3/1/1
s 0
f 5/12/2 9/10/2 4/11/2
s 1
f 6/13/1 8/14/1 5/12/1
s 0
f 8/14/3 9/10/3 5/12/3
s 1
f 6/13/1 7/15/1 8/14/1
f 18/16/1 16/2/1 17/17/1
f 18/16/1 19/7/1 16/2/1
f 22/16/1 20/2/1 21/17/1
f 22/16/1 23/7/1 20/2/1
