# Blender 4.4.1
# www.blender.org
mtllib Text1-1.mtl
o テキスト
v -0.485063 1.030485 0.100041
v -0.387063 1.030485 0.100041
v -0.387063 0.348485 0.100041
v -0.485063 0.348485 0.100041
v -0.145063 0.615485 0.100041
v 0.097937 0.615485 0.100041
v 0.097937 0.522485 0.100041
v -0.145063 0.522485 0.100041
v 0.337937 1.030485 0.100041
v 0.435937 1.030485 0.100041
v 0.435937 0.348485 0.100041
v 0.337937 0.348485 0.100041
vn -0.0000 -0.0000 -1.0000
vt 0.666667 0.000000
vt 0.000000 0.000000
vt 0.333333 0.000000
vt 1.000000 0.000000
s 0
usemtl マテリアル.002
f 3/1/1 1/2/1 2/3/1
f 3/1/1 4/4/1 1/2/1
f 7/1/1 5/2/1 6/3/1
f 7/1/1 8/4/1 5/2/1
f 11/1/1 9/2/1 10/3/1
f 11/1/1 12/4/1 9/2/1
