# Blender 4.4.1
# www.blender.org
mtllib Text1-5.mtl
o テキスト
v -0.655331 1.040808 0.000000
v -0.352332 1.040808 0.000000
v -0.352332 0.685808 0.000000
v -0.388545 0.692671 0.000000
v -0.422119 0.695461 0.000000
v -0.452956 0.694480 0.000000
v -0.480961 0.690030 0.000000
v -0.506035 0.682414 0.000000
v -0.528082 0.671933 0.000000
v -0.547002 0.658890 0.000000
v -0.562701 0.643586 0.000000
v -0.575081 0.626324 0.000000
v -0.584044 0.607405 0.000000
v -0.589494 0.587133 0.000000
v -0.591331 0.565808 0.000000
v -0.590027 0.549313 -0.000000
v -0.586234 0.533433 -0.000000
v -0.580129 0.518324 -0.000000
v -0.571887 0.504141 -0.000000
v -0.561687 0.491042 -0.000000
v -0.549706 0.479183 -0.000000
v -0.536121 0.468719 -0.000000
v -0.521109 0.459808 -0.000000
v -0.504848 0.452605 -0.000000
v -0.487512 0.447266 -0.000000
v -0.469281 0.443949 -0.000000
v -0.450331 0.442808 -0.000000
v -0.437833 0.443162 -0.000000
v -0.425337 0.444220 -0.000000
v -0.412848 0.445980 -0.000000
v -0.400369 0.448438 -0.000000
v -0.387904 0.451590 -0.000000
v -0.375457 0.455433 -0.000000
v -0.363031 0.459964 -0.000000
v -0.350628 0.465178 -0.000000
v -0.338254 0.471074 -0.000000
v -0.325911 0.477646 -0.000000
v -0.313602 0.484892 -0.000000
v -0.301332 0.492808 -0.000000
v -0.301332 0.391808 -0.000000
v -0.315846 0.384680 -0.000000
v -0.329942 0.378280 -0.000000
v -0.343707 0.372589 -0.000000
v -0.357221 0.367586 -0.000000
v -0.370568 0.363249 -0.000000
v -0.383832 0.359558 -0.000000
v -0.397096 0.356492 -0.000000
v -0.410443 0.354030 -0.000000
v -0.423957 0.352152 -0.000000
v -0.437721 0.350836 -0.000000
v -0.451818 0.350061 -0.000000
v -0.466332 0.349808 -0.000000
v -0.497818 0.351691 -0.000000
v -0.527642 0.357206 -0.000000
v -0.555598 0.366152 -0.000000
v -0.581480 0.378327 -0.000000
v -0.605085 0.393529 -0.000000
v -0.626207 0.411558 -0.000000
v -0.644642 0.432212 -0.000000
v -0.660184 0.455289 -0.000000
v -0.672629 0.480589 -0.000000
v -0.681772 0.507910 -0.000000
v -0.687407 0.537050 -0.000000
v -0.689332 0.567808 0.000000
v -0.687392 0.598659 0.000000
v -0.681656 0.628035 0.000000
v -0.672238 0.655667 0.000000
v -0.659258 0.681289 0.000000
v -0.642833 0.704634 0.000000
v -0.623081 0.725433 0.000000
v -0.600121 0.743420 0.000000
v -0.574072 0.758327 0.000000
v -0.545051 0.769886 0.000000
v -0.513175 0.777831 0.000000
v -0.478562 0.781894 0.000000
v -0.441332 0.781808 0.000000
v -0.441332 0.952808 0.000000
v -0.655331 0.952808 0.000000
v -0.211332 0.625808 0.000000
v 0.031668 0.625808 0.000000
v 0.031668 0.532808 -0.000000
v -0.211332 0.532808 -0.000000
v 0.271668 1.040808 0.000000
v 0.369668 1.040808 0.000000
v 0.369668 0.358808 -0.000000
v 0.271668 0.358808 -0.000000
vn -0.0000 -0.0000 -1.0000
vt 0.025974 0.000000
vt 0.987013 0.000000
vt 0.012987 0.000000
vt 0.000000 0.000000
vt 1.000000 0.000000
vt 0.974026 0.000000
vt 0.948052 0.000000
vt 0.961039 0.000000
vt 0.935065 0.000000
vt 0.922078 0.000000
vt 0.909091 0.000000
vt 0.038961 0.000000
vt 0.896104 0.000000
vt 0.051948 0.000000
vt 0.883117 0.000000
vt 0.064935 0.000000
vt 0.870130 0.000000
vt 0.077922 0.000000
vt 0.090909 0.000000
vt 0.103896 0.000000
vt 0.857143 0.000000
vt 0.116883 0.000000
vt 0.129870 0.000000
vt 0.844156 0.000000
vt 0.142857 0.000000
vt 0.831169 0.000000
vt 0.155844 0.000000
vt 0.168831 0.000000
vt 0.818182 0.000000
vt 0.181818 0.000000
vt 0.805195 0.000000
vt 0.194805 0.000000
vt 0.207792 0.000000
vt 0.792208 0.000000
vt 0.220779 0.000000
vt 0.233766 0.000000
vt 0.779221 0.000000
vt 0.246753 0.000000
vt 0.506494 0.000000
vt 0.480519 0.000000
vt 0.493506 0.000000
vt 0.259740 0.000000
vt 0.467532 0.000000
vt 0.766234 0.000000
vt 0.272727 0.000000
vt 0.454545 0.000000
vt 0.441558 0.000000
vt 0.285714 0.000000
vt 0.428571 0.000000
vt 0.415584 0.000000
vt 0.298701 0.000000
vt 0.402597 0.000000
vt 0.753247 0.000000
vt 0.311688 0.000000
vt 0.389610 0.000000
vt 0.376623 0.000000
vt 0.324675 0.000000
vt 0.363636 0.000000
vt 0.350649 0.000000
vt 0.337662 0.000000
vt 0.740260 0.000000
vt 0.727273 0.000000
vt 0.714286 0.000000
vt 0.519481 0.000000
vt 0.532468 0.000000
vt 0.701299 0.000000
vt 0.545455 0.000000
vt 0.558442 0.000000
vt 0.571429 0.000000
vt 0.688312 0.000000
vt 0.584416 0.000000
vt 0.597403 0.000000
vt 0.675325 0.000000
vt 0.610390 0.000000
vt 0.623377 0.000000
vt 0.636364 0.000000
vt 0.662338 0.000000
vt 0.649351 0.000000
vt 0.666667 0.000000
vt 0.333333 0.000000
s 1
usemtl マテリアル
f 3/1/1 77/2/1 2/3/1
f 77/2/1 1/4/1 2/3/1
f 77/2/1 78/5/1 1/4/1
f 3/1/1 76/6/1 77/2/1
f 76/6/1 74/7/1 75/8/1
f 3/1/1 74/7/1 76/6/1
f 3/1/1 73/9/1 74/7/1
f 3/1/1 72/10/1 73/9/1
f 3/1/1 71/11/1 72/10/1
f 3/1/1 4/12/1 71/11/1
f 4/12/1 70/13/1 71/11/1
f 4/12/1 5/14/1 70/13/1
f 5/14/1 69/15/1 70/13/1
f 5/14/1 6/16/1 69/15/1
f 6/16/1 68/17/1 69/15/1
f 7/18/1 68/17/1 6/16/1
f 8/19/1 68/17/1 7/18/1
f 9/20/1 68/17/1 8/19/1
f 9/20/1 67/21/1 68/17/1
f 10/22/1 67/21/1 9/20/1
f 11/23/1 67/21/1 10/22/1
f 11/23/1 66/24/1 67/21/1
f 12/25/1 66/24/1 11/23/1
f 12/25/1 65/26/1 66/24/1
f 13/27/1 65/26/1 12/25/1
f 14/28/1 65/26/1 13/27/1
f 14/28/1 64/29/1 65/26/1
f 15/30/1 64/29/1 14/28/1
f 15/30/1 63/31/1 64/29/1
f 16/32/1 63/31/1 15/30/1
f 17/33/1 63/31/1 16/32/1
f 17/33/1 62/34/1 63/31/1
f 18/35/1 62/34/1 17/33/1
f 19/36/1 62/34/1 18/35/1
f 19/36/1 61/37/1 62/34/1
f 20/38/1 61/37/1 19/36/1
f 40/39/1 38/40/1 39/41/1
f 21/42/1 61/37/1 20/38/1
f 40/39/1 37/43/1 38/40/1
f 21/42/1 60/44/1 61/37/1
f 22/45/1 60/44/1 21/42/1
f 40/39/1 36/46/1 37/43/1
f 40/39/1 35/47/1 36/46/1
f 23/48/1 60/44/1 22/45/1
f 40/39/1 34/49/1 35/47/1
f 40/39/1 33/50/1 34/49/1
f 24/51/1 60/44/1 23/48/1
f 40/39/1 32/52/1 33/50/1
f 24/51/1 59/53/1 60/44/1
f 25/54/1 59/53/1 24/51/1
f 40/39/1 31/55/1 32/52/1
f 40/39/1 30/56/1 31/55/1
f 26/57/1 59/53/1 25/54/1
f 40/39/1 29/58/1 30/56/1
f 40/39/1 28/59/1 29/58/1
f 27/60/1 59/53/1 26/57/1
f 40/39/1 27/60/1 28/59/1
f 40/39/1 59/53/1 27/60/1
f 40/39/1 58/61/1 59/53/1
f 40/39/1 57/62/1 58/61/1
f 40/39/1 56/63/1 57/62/1
f 41/64/1 56/63/1 40/39/1
f 42/65/1 56/63/1 41/64/1
f 42/65/1 55/66/1 56/63/1
f 43/67/1 55/66/1 42/65/1
f 44/68/1 55/66/1 43/67/1
f 45/69/1 55/66/1 44/68/1
f 45/69/1 54/70/1 55/66/1
f 46/71/1 54/70/1 45/69/1
f 47/72/1 54/70/1 46/71/1
f 47/72/1 53/73/1 54/70/1
f 48/74/1 53/73/1 47/72/1
f 49/75/1 53/73/1 48/74/1
f 50/76/1 53/73/1 49/75/1
f 50/76/1 52/77/1 53/73/1
f 51/78/1 52/77/1 50/76/1
f 81/79/1 79/4/1 80/80/1
f 81/79/1 82/5/1 79/4/1
f 85/79/1 83/4/1 84/80/1
f 85/79/1 86/5/1 83/4/1
