# Blender 4.4.1
# www.blender.org
mtllib Text2-1.mtl
o テキスト
v -0.444032 1.016618 0.000000
v -0.346032 1.016618 0.000000
v -0.346032 0.334618 0.000000
v -0.444032 0.334618 0.000000
v -0.104032 0.601618 0.000000
v 0.138968 0.601618 0.000000
v 0.138968 0.508618 0.000000
v -0.104032 0.508618 0.000000
v 0.212968 0.427618 0.000000
v 0.473968 0.427618 0.000000
v 0.437866 0.471096 0.000000
v 0.405487 0.511276 0.000000
v 0.376718 0.548525 0.000000
v 0.351450 0.583211 0.000000
v 0.329570 0.615703 0.000000
v 0.310968 0.646369 0.000000
v 0.295533 0.675576 0.000000
v 0.283153 0.703693 0.000000
v 0.273718 0.731087 0.000000
v 0.267116 0.758128 -0.000000
v 0.263237 0.785182 -0.000000
v 0.261968 0.812618 -0.000000
v 0.263712 0.843278 -0.000000
v 0.268834 0.872146 -0.000000
v 0.277171 0.899056 -0.000000
v 0.288561 0.923841 -0.000000
v 0.302839 0.946334 -0.000000
v 0.319843 0.966368 -0.000000
v 0.339410 0.983778 -0.000000
v 0.361376 0.998396 -0.000000
v 0.385578 1.010056 -0.000000
v 0.411852 1.018591 -0.000000
v 0.440037 1.023834 -0.000000
v 0.469968 1.025619 -0.000000
v 0.483640 1.025180 -0.000000
v 0.497172 1.023859 -0.000000
v 0.510593 1.021650 -0.000000
v 0.523931 1.018544 -0.000000
v 0.537214 1.014536 -0.000000
v 0.550468 1.009619 -0.000000
v 0.563723 1.003784 -0.000000
v 0.577005 0.997026 -0.000000
v 0.590343 0.989337 -0.000000
v 0.603765 0.980711 -0.000000
v 0.617297 0.971141 -0.000000
v 0.630968 0.960618 -0.000000
v 0.630968 0.837618 -0.000000
v 0.617320 0.854133 -0.000000
v 0.603866 0.868739 -0.000000
v 0.590593 0.881525 -0.000000
v 0.577487 0.892581 -0.000000
v 0.564533 0.901999 -0.000000
v 0.551718 0.909868 -0.000000
v 0.539028 0.916279 -0.000000
v 0.526450 0.921322 -0.000000
v 0.513968 0.925087 -0.000000
v 0.501570 0.927665 -0.000000
v 0.489241 0.929145 -0.000000
v 0.476968 0.929618 -0.000000
v 0.460591 0.928532 -0.000000
v 0.445038 0.925345 -0.000000
v 0.430421 0.920165 -0.000000
v 0.416857 0.913100 -0.000000
v 0.404460 0.904257 -0.000000
v 0.393343 0.893743 -0.000000
v 0.383623 0.881668 -0.000000
v 0.375413 0.868137 -0.000000
v 0.368828 0.853259 -0.000000
v 0.363982 0.837142 -0.000000
v 0.360991 0.819892 -0.000000
v 0.359968 0.801618 -0.000000
v 0.360302 0.787822 -0.000000
v 0.361302 0.774831 -0.000000
v 0.362968 0.762493 -0.000000
v 0.365302 0.750656 -0.000000
v 0.368302 0.739165 -0.000000
v 0.371968 0.727868 -0.000000
v 0.376302 0.716614 -0.000000
v 0.381302 0.705248 -0.000000
v 0.386968 0.693618 -0.000000
v 0.393302 0.681572 -0.000000
v 0.400302 0.668956 -0.000000
v 0.407968 0.655618 -0.000000
v 0.423383 0.630381 -0.000000
v 0.440454 0.604304 -0.000000
v 0.458921 0.577587 -0.000000
v 0.478524 0.550433 -0.000000
v 0.499001 0.523043 -0.000000
v 0.520093 0.495618 -0.000000
v 0.541539 0.468360 0.000000
v 0.563079 0.441470 0.000000
v 0.584453 0.415150 0.000000
v 0.605399 0.389600 0.000000
v 0.625657 0.365022 0.000000
v 0.644968 0.341618 0.000000
v 0.644968 0.334618 0.000000
v 0.212968 0.334618 0.000000
vn -0.0000 -0.0000 -1.0000
vt 0.666667 0.000000
vt 0.000000 0.000000
vt 0.333333 0.000000
vt 1.000000 0.000000
vt 0.295455 0.000000
vt 0.272727 0.000000
vt 0.284091 0.000000
vt 0.306818 0.000000
vt 0.318182 0.000000
vt 0.261364 0.000000
vt 0.329545 0.000000
vt 0.250000 0.000000
vt 0.340909 0.000000
vt 0.352273 0.000000
vt 0.238636 0.000000
vt 0.363636 0.000000
vt 0.375000 0.000000
vt 0.227273 0.000000
vt 0.386364 0.000000
vt 0.397727 0.000000
vt 0.215909 0.000000
vt 0.409091 0.000000
vt 0.420455 0.000000
vt 0.204545 0.000000
vt 0.431818 0.000000
vt 0.443182 0.000000
vt 0.454545 0.000000
vt 0.465909 0.000000
vt 0.477273 0.000000
vt 0.488636 0.000000
vt 0.500000 0.000000
vt 0.511364 0.000000
vt 0.522727 0.000000
vt 0.534091 0.000000
vt 0.545455 0.000000
vt 0.556818 0.000000
vt 0.568182 0.000000
vt 0.193182 0.000000
vt 0.579545 0.000000
vt 0.590909 0.000000
vt 0.602273 0.000000
vt 0.181818 0.000000
vt 0.613636 0.000000
vt 0.625000 0.000000
vt 0.636364 0.000000
vt 0.170455 0.000000
vt 0.647727 0.000000
vt 0.659091 0.000000
vt 0.159091 0.000000
vt 0.670455 0.000000
vt 0.681818 0.000000
vt 0.147727 0.000000
vt 0.693182 0.000000
vt 0.704545 0.000000
vt 0.136364 0.000000
vt 0.715909 0.000000
vt 0.727273 0.000000
vt 0.125000 0.000000
vt 0.738636 0.000000
vt 0.750000 0.000000
vt 0.113636 0.000000
vt 0.761364 0.000000
vt 0.772727 0.000000
vt 0.102273 0.000000
vt 0.784091 0.000000
vt 0.795455 0.000000
vt 0.806818 0.000000
vt 0.090909 0.000000
vt 0.818182 0.000000
vt 0.829545 0.000000
vt 0.079545 0.000000
vt 0.840909 0.000000
vt 0.852273 0.000000
vt 0.068182 0.000000
vt 0.863636 0.000000
vt 0.056818 0.000000
vt 0.875000 0.000000
vt 0.045455 0.000000
vt 0.886364 0.000000
vt 0.897727 0.000000
vt 0.034091 0.000000
vt 0.909091 0.000000
vt 0.022727 0.000000
vt 0.920455 0.000000
vt 0.011364 0.000000
vt 0.931818 0.000000
vt 0.943182 0.000000
vt 0.954545 0.000000
vt 0.965909 0.000000
vt 0.977273 0.000000
vt 0.988636 0.000000
s 0
usemtl マテリアル
f 3/1/1 1/2/1 2/3/1
f 3/1/1 4/4/1 1/2/1
f 7/1/1 5/2/1 6/3/1
f 7/1/1 8/4/1 5/2/1
f 35/5/1 33/6/1 34/7/1
f 36/8/1 33/6/1 35/5/1
f 37/9/1 33/6/1 36/8/1
f 37/9/1 32/10/1 33/6/1
f 38/11/1 32/10/1 37/9/1
f 38/11/1 31/12/1 32/10/1
f 39/13/1 31/12/1 38/11/1
f 40/14/1 31/12/1 39/13/1
f 40/14/1 30/15/1 31/12/1
f 41/16/1 30/15/1 40/14/1
f 42/17/1 30/15/1 41/16/1
f 42/17/1 29/18/1 30/15/1
f 43/19/1 29/18/1 42/17/1
f 44/20/1 29/18/1 43/19/1
f 44/20/1 28/21/1 29/18/1
f 45/22/1 28/21/1 44/20/1
f 46/23/1 28/21/1 45/22/1
f 46/23/1 27/24/1 28/21/1
f 47/25/1 48/26/1 46/23/1
f 48/26/1 49/27/1 46/23/1
f 49/27/1 50/28/1 46/23/1
f 50/28/1 51/29/1 46/23/1
f 51/29/1 52/30/1 46/23/1
f 52/30/1 53/31/1 46/23/1
f 53/31/1 54/32/1 46/23/1
f 54/32/1 55/33/1 46/23/1
f 55/33/1 56/34/1 46/23/1
f 56/34/1 57/35/1 46/23/1
f 57/35/1 58/36/1 46/23/1
f 58/36/1 27/24/1 46/23/1
f 58/36/1 59/37/1 27/24/1
f 59/37/1 26/38/1 27/24/1
f 60/39/1 26/38/1 59/37/1
f 61/40/1 26/38/1 60/39/1
f 62/41/1 26/38/1 61/40/1
f 62/41/1 25/42/1 26/38/1
f 63/43/1 25/42/1 62/41/1
f 64/44/1 25/42/1 63/43/1
f 65/45/1 25/42/1 64/44/1
f 65/45/1 24/46/1 25/42/1
f 66/47/1 24/46/1 65/45/1
f 67/48/1 24/46/1 66/47/1
f 67/48/1 23/49/1 24/46/1
f 68/50/1 23/49/1 67/48/1
f 69/51/1 23/49/1 68/50/1
f 69/51/1 22/52/1 23/49/1
f 70/53/1 22/52/1 69/51/1
f 71/54/1 22/52/1 70/53/1
f 71/54/1 21/55/1 22/52/1
f 72/56/1 21/55/1 71/54/1
f 73/57/1 21/55/1 72/56/1
f 73/57/1 20/58/1 21/55/1
f 74/59/1 20/58/1 73/57/1
f 75/60/1 20/58/1 74/59/1
f 75/60/1 19/61/1 20/58/1
f 76/62/1 19/61/1 75/60/1
f 77/63/1 19/61/1 76/62/1
f 77/63/1 18/64/1 19/61/1
f 78/65/1 18/64/1 77/63/1
f 79/66/1 18/64/1 78/65/1
f 80/67/1 18/64/1 79/66/1
f 80/67/1 17/68/1 18/64/1
f 81/69/1 17/68/1 80/67/1
f 82/70/1 17/68/1 81/69/1
f 82/70/1 16/71/1 17/68/1
f 83/72/1 16/71/1 82/70/1
f 84/73/1 16/71/1 83/72/1
f 84/73/1 15/74/1 16/71/1
f 85/75/1 15/74/1 84/73/1
f 85/75/1 14/76/1 15/74/1
f 86/77/1 14/76/1 85/75/1
f 86/77/1 13/78/1 14/76/1
f 87/79/1 13/78/1 86/77/1
f 88/80/1 13/78/1 87/79/1
f 88/80/1 12/81/1 13/78/1
f 89/82/1 12/81/1 88/80/1
f 89/82/1 11/83/1 12/81/1
f 90/84/1 11/83/1 89/82/1
f 90/84/1 10/85/1 11/83/1
f 91/86/1 10/85/1 90/84/1
f 92/87/1 10/85/1 91/86/1
f 92/87/1 9/2/1 10/85/1
f 92/87/1 97/4/1 9/2/1
f 93/88/1 97/4/1 92/87/1
f 94/89/1 97/4/1 93/88/1
f 95/90/1 97/4/1 94/89/1
f 96/91/1 97/4/1 95/90/1
