# Blender 4.4.1
# www.blender.org
mtllib parasol.mtl
o 円柱
v -0.002619 1.197385 0.076606
v -0.002619 0.161195 0.076606
v -0.011988 1.197385 0.075683
v -0.011988 0.161195 0.075683
v -0.020997 1.197385 0.072950
v -0.020997 0.161195 0.072950
v -0.029300 1.197385 0.068512
v -0.029300 0.161195 0.068512
v -0.036577 1.197385 0.062540
v -0.036577 0.161195 0.062540
v -0.042549 1.197385 0.055262
v -0.042549 0.161195 0.055262
v -0.046987 1.197385 0.046960
v -0.046987 0.161195 0.046960
v -0.049720 1.197385 0.037951
v -0.049720 0.161195 0.037951
v -0.050643 1.197385 0.028582
v -0.050643 0.161195 0.028582
v -0.049720 1.197385 0.019213
v -0.049720 0.161195 0.019213
v -0.046987 1.197385 0.010204
v -0.046987 0.161195 0.010204
v -0.042549 1.197385 0.001901
v -0.042549 0.161195 0.001901
v -0.036577 1.197385 -0.005376
v -0.036577 0.161195 -0.005376
v -0.029300 1.197385 -0.011348
v -0.029300 0.161195 -0.011348
v -0.020997 1.197385 -0.015786
v -0.020997 0.161195 -0.015786
v -0.011988 1.197385 -0.018519
v -0.011988 0.161195 -0.018519
v -0.002619 1.197385 -0.019442
v -0.002619 0.161195 -0.019442
v 0.006750 1.197385 -0.018519
v 0.006750 0.161195 -0.018519
v 0.015759 1.197385 -0.015786
v 0.015759 0.161195 -0.015786
v 0.024062 1.197385 -0.011348
v 0.024062 0.161195 -0.011348
v 0.031339 1.197385 -0.005376
v 0.031339 0.161195 -0.005376
v 0.037311 1.197385 0.001901
v 0.037311 0.161195 0.001901
v 0.041749 1.197385 0.010204
v 0.041749 0.161195 0.010204
v 0.044482 1.197385 0.019213
v 0.044482 0.161195 0.019213
v 0.045405 1.197385 0.028582
v 0.045405 0.161195 0.028582
v 0.044482 1.197385 0.037951
v 0.044482 0.161195 0.037951
v 0.041749 1.197385 0.046960
v 0.041749 0.161195 0.046960
v 0.037311 1.197385 0.055262
v 0.037311 0.161195 0.055262
v 0.031339 1.197385 0.062540
v 0.031339 0.161195 0.062540
v 0.024062 1.197385 0.068512
v 0.024062 0.161195 0.068512
v 0.015759 1.197385 0.072950
v 0.015759 0.161195 0.072950
v 0.006750 1.197385 0.075683
v 0.006750 0.161195 0.075683
v -0.003557 1.078241 -0.433869
v -0.003557 0.849092 -0.663018
v 0.028054 1.202255 -0.131358
v 0.058451 1.154992 -0.284170
v 0.086464 1.078241 -0.425003
v 0.111018 0.974951 -0.548443
v 0.131169 0.849092 -0.649748
v 0.058451 1.202255 -0.122138
v 0.118075 1.154992 -0.266084
v 0.173025 1.078241 -0.398745
v 0.221189 0.974951 -0.515023
v 0.260716 0.849092 -0.610450
v 0.086464 1.202255 -0.107164
v 0.173025 1.154992 -0.236712
v 0.252800 1.078241 -0.356104
v 0.322724 0.974951 -0.460752
v 0.380108 0.849092 -0.546634
v 0.111018 1.202255 -0.087013
v 0.221189 1.154992 -0.197185
v 0.322724 1.078241 -0.298719
v 0.411719 0.974951 -0.387715
v 0.484756 0.849092 -0.460752
v 0.131169 1.202255 -0.062460
v 0.260716 1.154992 -0.149021
v 0.380108 1.078241 -0.228796
v 0.484756 0.974951 -0.298719
v 0.570638 0.849092 -0.356104
v -0.003557 1.218214 0.027561
v 0.146142 1.202255 -0.034446
v 0.290088 1.154992 -0.094071
v 0.422749 1.078241 -0.149021
v 0.539027 0.974951 -0.197185
v 0.634455 0.849092 -0.236712
v 0.155363 1.202255 -0.004050
v 0.308175 1.154992 -0.034446
v 0.449007 1.078241 -0.062460
v 0.572448 0.974951 -0.087014
v 0.673753 0.849092 -0.107164
v 0.158476 1.202255 0.027561
v 0.314282 1.154992 0.027561
v 0.457873 1.078241 0.027561
v 0.583732 0.974951 0.027561
v 0.687022 0.849092 0.027561
v 0.155363 1.202255 0.059172
v 0.308175 1.154992 0.089568
v 0.449007 1.078241 0.117581
v 0.572448 0.974951 0.142135
v 0.673753 0.849092 0.162286
v 0.146142 1.202255 0.089568
v 0.290088 1.154992 0.149192
v 0.422749 1.078241 0.204142
v 0.539027 0.974951 0.252306
v 0.634455 0.849092 0.291834
v 0.131169 1.202255 0.117581
v 0.260716 1.154992 0.204142
v 0.380108 1.078241 0.283918
v 0.484756 0.974951 0.353841
v 0.570638 0.849092 0.411226
v 0.111018 1.202255 0.142135
v 0.221189 1.154992 0.252307
v 0.322723 1.078241 0.353841
v 0.411719 0.974951 0.442837
v 0.484756 0.849092 0.515874
v 0.086464 1.202255 0.162286
v 0.173025 1.154992 0.291834
v 0.252800 1.078241 0.411226
v 0.322724 0.974951 0.515874
v 0.380108 0.849092 0.601756
v 0.058451 1.202255 0.177259
v 0.118075 1.154992 0.321205
v 0.173025 1.078241 0.453866
v 0.221189 0.974951 0.570145
v 0.260716 0.849092 0.665572
v 0.028054 1.202255 0.186480
v 0.058451 1.154992 0.339292
v 0.086464 1.078241 0.480124
v 0.111018 0.974951 0.603565
v 0.131169 0.849092 0.704870
v -0.003557 1.202255 0.189593
v -0.003557 1.154992 0.345399
v -0.003557 1.078241 0.488991
v -0.003557 0.974951 0.614850
v -0.003557 0.849092 0.718139
v -0.035168 1.202255 0.186480
v -0.065564 1.154992 0.339292
v -0.093577 1.078241 0.480124
v -0.118131 0.974951 0.603565
v -0.138282 0.849092 0.704870
v -0.065564 1.202255 0.177259
v -0.125188 1.154992 0.321205
v -0.180138 1.078241 0.453866
v -0.228302 0.974951 0.570145
v -0.267829 0.849092 0.665572
v -0.093577 1.202255 0.162286
v -0.180138 1.154992 0.291834
v -0.259913 1.078241 0.411225
v -0.329837 0.974951 0.515874
v -0.387221 0.849092 0.601756
v -0.118131 1.202255 0.142135
v -0.228302 1.154992 0.252306
v -0.329837 1.078241 0.353841
v -0.418832 0.974951 0.442837
v -0.491869 0.849092 0.515873
v -0.138282 1.202255 0.117581
v -0.267829 1.154992 0.204142
v -0.387221 1.078241 0.283917
v -0.491869 0.974951 0.353841
v -0.577751 0.849092 0.411225
v -0.153255 1.202255 0.089568
v -0.297201 1.154992 0.149192
v -0.429862 1.078241 0.204142
v -0.546140 0.974951 0.252306
v -0.641568 0.849092 0.291834
v -0.162476 1.202255 0.059172
v -0.315288 1.154992 0.089568
v -0.456120 1.078241 0.117581
v -0.579561 0.974951 0.142135
v -0.680865 0.849092 0.162286
v -0.165589 1.202255 0.027561
v -0.321395 1.154992 0.027561
v -0.464986 1.078241 0.027561
v -0.590845 0.974951 0.027561
v -0.694135 0.849092 0.027561
v -0.162476 1.202255 -0.004050
v -0.315288 1.154992 -0.034446
v -0.456120 1.078241 -0.062460
v -0.579561 0.974951 -0.087013
v -0.680865 0.849092 -0.107164
v -0.153255 1.202255 -0.034446
v -0.297201 1.154992 -0.094071
v -0.429862 1.078241 -0.149021
v -0.546140 0.974951 -0.197185
v -0.641568 0.849092 -0.236712
v -0.138282 1.202255 -0.062460
v -0.267829 1.154992 -0.149021
v -0.387221 1.078241 -0.228796
v -0.491869 0.974951 -0.298719
v -0.577751 0.849092 -0.356104
v -0.118131 1.202255 -0.087013
v -0.228302 1.154992 -0.197185
v -0.329836 1.078241 -0.298719
v -0.418832 0.974951 -0.387715
v -0.491869 0.849092 -0.460752
v -0.093577 1.202255 -0.107164
v -0.180138 1.154992 -0.236712
v -0.259913 1.078241 -0.356104
v -0.329837 0.974951 -0.460752
v -0.387221 0.849092 -0.546634
v -0.065564 1.202255 -0.122138
v -0.125188 1.154992 -0.266083
v -0.180138 1.078241 -0.398744
v -0.228302 0.974951 -0.515023
v -0.267829 0.849092 -0.610450
v -0.035167 1.202255 -0.131358
v -0.065564 1.154992 -0.284170
v -0.093577 1.078241 -0.425002
v -0.118131 0.974951 -0.548443
v -0.138281 0.849092 -0.649748
v -0.003557 1.202255 -0.134472
v -0.003556 1.154992 -0.290277
v -0.003556 0.974951 -0.559728
vn -0.0980 -0.0000 0.9952
vn -0.2903 -0.0000 0.9569
vn -0.4714 -0.0000 0.8819
vn -0.6344 -0.0000 0.7730
vn -0.7730 -0.0000 0.6344
vn -0.8819 -0.0000 0.4714
vn -0.9569 -0.0000 0.2903
vn -0.9952 -0.0000 0.0980
vn -0.9952 -0.0000 -0.0980
vn -0.9569 -0.0000 -0.2903
vn -0.8819 -0.0000 -0.4714
vn -0.7730 -0.0000 -0.6344
vn -0.6344 -0.0000 -0.7730
vn -0.4714 -0.0000 -0.8819
vn -0.2903 -0.0000 -0.9569
vn -0.0980 -0.0000 -0.9952
vn 0.0980 -0.0000 -0.9952
vn 0.2903 -0.0000 -0.9569
vn 0.4714 -0.0000 -0.8819
vn 0.6344 -0.0000 -0.7730
vn 0.7730 -0.0000 -0.6344
vn 0.8819 -0.0000 -0.4714
vn 0.9569 -0.0000 -0.2903
vn 0.9952 -0.0000 -0.0980
vn 0.9952 -0.0000 0.0980
vn 0.9569 -0.0000 0.2903
vn 0.8819 -0.0000 0.4714
vn 0.7730 -0.0000 0.6344
vn 0.6344 -0.0000 0.7730
vn 0.4714 -0.0000 0.8819
vn -0.0000 -1.0000 -0.0000
vn 0.2903 -0.0000 0.9569
vn 0.0980 -0.0000 0.9952
vn -0.0000 1.0000 -0.0000
vn -0.0097 -0.9951 0.0980
vn -0.0286 -0.9565 0.2902
vn -0.0464 -0.8810 0.4709
vn -0.0624 -0.7715 0.6332
vn -0.0759 -0.6326 0.7708
vn -0.0286 -0.9951 0.0942
vn -0.0846 -0.9565 0.2790
vn -0.1374 -0.8810 0.4528
vn -0.1847 -0.7715 0.6088
vn -0.2248 -0.6326 0.7412
vn -0.2999 -0.7715 0.5611
vn -0.3651 -0.6326 0.6831
vn -0.0464 -0.9951 0.0869
vn -0.1374 -0.9565 0.2571
vn -0.2231 -0.8810 0.4173
vn -0.0625 -0.9951 0.0761
vn -0.1850 -0.9565 0.2254
vn -0.3002 -0.8810 0.3658
vn -0.4036 -0.7715 0.4918
vn -0.4913 -0.6326 0.5987
vn -0.4918 -0.7715 0.4036
vn -0.5987 -0.6326 0.4913
vn -0.0761 -0.9951 0.0625
vn -0.2254 -0.9565 0.1850
vn -0.3658 -0.8810 0.3002
vn -0.0869 -0.9951 0.0464
vn -0.2571 -0.9565 0.1374
vn -0.4173 -0.8810 0.2231
vn -0.5611 -0.7715 0.2999
vn -0.6831 -0.6326 0.3651
vn -0.7412 -0.6326 0.2248
vn -0.0942 -0.9951 0.0286
vn -0.2790 -0.9565 0.0846
vn -0.4528 -0.8810 0.1374
vn -0.6088 -0.7715 0.1847
vn -0.0980 -0.9951 0.0097
vn -0.2902 -0.9565 0.0286
vn -0.4709 -0.8810 0.0464
vn -0.6332 -0.7715 0.0624
vn -0.7708 -0.6326 0.0759
vn -0.7708 -0.6326 -0.0759
vn -0.0980 -0.9951 -0.0097
vn -0.2902 -0.9565 -0.0286
vn -0.4709 -0.8810 -0.0464
vn -0.6332 -0.7715 -0.0624
vn -0.2790 -0.9565 -0.0846
vn -0.4528 -0.8810 -0.1374
vn -0.6088 -0.7715 -0.1847
vn -0.7412 -0.6326 -0.2248
vn -0.0942 -0.9951 -0.0286
vn -0.0869 -0.9951 -0.0464
vn -0.2571 -0.9565 -0.1374
vn -0.4173 -0.8810 -0.2231
vn -0.5611 -0.7715 -0.2999
vn -0.6831 -0.6326 -0.3651
vn -0.3658 -0.8810 -0.3002
vn -0.4918 -0.7715 -0.4036
vn -0.5987 -0.6326 -0.4913
vn -0.0761 -0.9951 -0.0625
vn -0.2254 -0.9565 -0.1850
vn -0.0625 -0.9951 -0.0761
vn -0.1850 -0.9565 -0.2254
vn -0.3002 -0.8810 -0.3658
vn -0.4036 -0.7715 -0.4918
vn -0.4913 -0.6326 -0.5987
vn -0.2230 -0.8810 -0.4173
vn -0.2999 -0.7715 -0.5611
vn -0.3651 -0.6326 -0.6831
vn -0.0464 -0.9951 -0.0869
vn -0.1374 -0.9565 -0.2571
vn -0.0286 -0.9951 -0.0942
vn -0.0846 -0.9565 -0.2790
vn -0.1374 -0.8810 -0.4528
vn -0.1847 -0.7715 -0.6088
vn -0.2248 -0.6326 -0.7412
vn -0.0624 -0.7715 -0.6332
vn -0.0759 -0.6326 -0.7708
vn -0.0097 -0.9951 -0.0980
vn -0.0286 -0.9565 -0.2902
vn -0.0464 -0.8810 -0.4709
vn 0.0097 -0.9951 -0.0980
vn 0.0286 -0.9565 -0.2902
vn 0.0464 -0.8810 -0.4709
vn 0.0624 -0.7715 -0.6332
vn 0.0759 -0.6326 -0.7708
vn 0.1847 -0.7715 -0.6088
vn 0.2248 -0.6326 -0.7412
vn 0.0286 -0.9951 -0.0942
vn 0.0846 -0.9565 -0.2790
vn 0.1374 -0.8810 -0.4528
vn 0.0464 -0.9951 -0.0869
vn 0.1374 -0.9565 -0.2571
vn 0.2231 -0.8810 -0.4173
vn 0.2999 -0.7715 -0.5611
vn 0.3651 -0.6326 -0.6831
vn 0.4913 -0.6326 -0.5987
vn 0.0625 -0.9951 -0.0761
vn 0.1850 -0.9565 -0.2254
vn 0.3002 -0.8810 -0.3658
vn 0.4036 -0.7715 -0.4918
vn 0.2254 -0.9565 -0.1850
vn 0.3658 -0.8810 -0.3002
vn 0.4918 -0.7715 -0.4036
vn 0.5987 -0.6326 -0.4913
vn 0.0761 -0.9951 -0.0625
vn 0.0869 -0.9951 -0.0464
vn 0.2571 -0.9565 -0.1374
vn 0.4173 -0.8810 -0.2230
vn 0.5611 -0.7715 -0.2999
vn 0.6831 -0.6326 -0.3651
vn 0.2790 -0.9565 -0.0846
vn 0.4528 -0.8810 -0.1374
vn 0.6088 -0.7715 -0.1847
vn 0.7412 -0.6326 -0.2248
vn 0.0942 -0.9951 -0.0286
vn 0.0980 -0.9951 -0.0097
vn 0.2902 -0.9565 -0.0286
vn 0.4709 -0.8810 -0.0464
vn 0.6332 -0.7715 -0.0624
vn 0.7708 -0.6326 -0.0759
vn 0.4709 -0.8810 0.0464
vn 0.6332 -0.7715 0.0624
vn 0.7708 -0.6326 0.0759
vn 0.0980 -0.9951 0.0097
vn 0.2902 -0.9565 0.0286
vn 0.0942 -0.9951 0.0286
vn 0.2790 -0.9565 0.0846
vn 0.4528 -0.8810 0.1374
vn 0.6088 -0.7715 0.1847
vn 0.7412 -0.6326 0.2248
vn 0.4173 -0.8810 0.2230
vn 0.5611 -0.7715 0.2999
vn 0.6831 -0.6326 0.3651
vn 0.0869 -0.9951 0.0464
vn 0.2571 -0.9565 0.1374
vn 0.0761 -0.9951 0.0625
vn 0.2254 -0.9565 0.1850
vn 0.3658 -0.8810 0.3002
vn 0.4918 -0.7715 0.4036
vn 0.5987 -0.6326 0.4913
vn 0.4036 -0.7715 0.4918
vn 0.4913 -0.6326 0.5987
vn 0.0625 -0.9951 0.0761
vn 0.1850 -0.9565 0.2254
vn 0.3002 -0.8810 0.3658
vn 0.0464 -0.9951 0.0869
vn 0.1374 -0.9565 0.2571
vn 0.2231 -0.8810 0.4173
vn 0.2999 -0.7715 0.5611
vn 0.3651 -0.6326 0.6831
vn 0.2248 -0.6326 0.7412
vn 0.0286 -0.9951 0.0942
vn 0.0846 -0.9565 0.2790
vn 0.1374 -0.8810 0.4528
vn 0.1847 -0.7715 0.6088
vn 0.0097 -0.9951 0.0980
vn 0.0286 -0.9565 0.2902
vn 0.0464 -0.8810 0.4709
vn 0.0624 -0.7715 0.6332
vn 0.0759 -0.6326 0.7708
vn -0.2230 -0.8810 0.4173
vn -0.4173 -0.8810 0.2230
vn -0.2231 -0.8810 -0.4173
vn 0.4173 -0.8810 -0.2231
vn 0.4173 -0.8810 0.2231
vt 0.033099 0.666802
vt 0.000401 0.333199
vt 0.033099 0.333199
vt 0.301100 0.666802
vt 0.268401 0.333199
vt 0.301100 0.333199
vt 0.167100 0.666802
vt 0.134401 0.333199
vt 0.167100 0.333199
vt 0.999599 0.033901
vt 0.665996 0.066599
vt 0.665996 0.033901
vt 0.999599 0.301901
vt 0.665996 0.334600
vt 0.665996 0.301901
vt 0.569100 0.666802
vt 0.536402 0.333199
vt 0.569100 0.333199
vt 0.334600 0.666802
vt 0.301901 0.333199
vt 0.334600 0.333199
vt 0.999599 0.167901
vt 0.665996 0.200600
vt 0.665996 0.167901
vt 0.999599 0.201401
vt 0.665996 0.234100
vt 0.665996 0.201401
vt 0.368100 0.666802
vt 0.335401 0.333199
vt 0.368100 0.333199
vt 0.602600 0.666802
vt 0.569902 0.333199
vt 0.602600 0.333199
vt 0.999599 0.335401
vt 0.665996 0.368100
vt 0.665996 0.335401
vt 0.999599 0.368901
vt 0.665996 0.401600
vt 0.665996 0.368901
vt 0.636101 0.666802
vt 0.603402 0.333199
vt 0.636101 0.333199
vt 0.401600 0.666802
vt 0.368901 0.333199
vt 0.401600 0.333199
vt 0.999599 0.234901
vt 0.665996 0.267600
vt 0.665996 0.234901
vt 0.999599 0.268401
vt 0.665996 0.301100
vt 0.665996 0.268401
vt 0.435100 0.666802
vt 0.402401 0.333199
vt 0.435100 0.333199
vt 0.999599 0.000401
vt 0.665996 0.033099
vt 0.665996 0.000401
vt 0.999599 0.402401
vt 0.665996 0.435100
vt 0.665996 0.402401
vt 0.999599 0.067401
vt 0.665996 0.100100
vt 0.665996 0.067401
vt 0.200600 0.666802
vt 0.167901 0.333199
vt 0.200600 0.333199
vt 0.468600 0.666802
vt 0.435901 0.333199
vt 0.468600 0.333199
vt 0.066600 0.666802
vt 0.033901 0.333199
vt 0.066600 0.333199
vt 0.100100 0.666802
vt 0.067401 0.333199
vt 0.100100 0.333199
vt 0.502100 0.666802
vt 0.469401 0.333199
vt 0.502100 0.333199
vt 0.234100 0.666802
vt 0.201401 0.333199
vt 0.234100 0.333199
vt 0.999599 0.100901
vt 0.665996 0.133600
vt 0.665996 0.100901
vt 0.999599 0.134401
vt 0.665996 0.167100
vt 0.665996 0.134401
vt 0.267600 0.666802
vt 0.234901 0.333199
vt 0.267600 0.333199
vt 0.393379 0.037460
vt 0.628136 0.060581
vt 0.605015 0.295338
vt 0.535600 0.666802
vt 0.502901 0.333199
vt 0.535600 0.333199
vt 0.133600 0.666802
vt 0.100901 0.333199
vt 0.133600 0.333199
vt 0.326018 0.117979
vt 0.214819 0.326018
vt 0.006780 0.214819
vt 0.750000 0.937500
vt 0.734375 1.000000
vt 0.718750 0.937500
vt 0.750000 0.875000
vt 0.718750 0.875000
vt 0.750000 0.812500
vt 0.718750 0.812500
vt 0.718750 0.750000
vt 0.750000 0.750000
vt 0.718750 0.687500
vt 0.750000 0.687500
vt 0.703125 1.000000
vt 0.687500 0.937500
vt 0.687500 0.875000
vt 0.687500 0.812500
vt 0.687500 0.750000
vt 0.687500 0.687500
vt 0.656250 0.750000
vt 0.656250 0.687500
vt 0.671875 1.000000
vt 0.656250 0.937500
vt 0.656250 0.875000
vt 0.656250 0.812500
vt 0.640625 1.000000
vt 0.625000 0.937500
vt 0.625000 0.875000
vt 0.625000 0.812500
vt 0.625000 0.750000
vt 0.625000 0.687500
vt 0.593750 0.750000
vt 0.593750 0.687500
vt 0.609375 1.000000
vt 0.593750 0.937500
vt 0.593750 0.875000
vt 0.593750 0.812500
vt 0.578125 1.000000
vt 0.562500 0.937500
vt 0.562500 0.875000
vt 0.562500 0.812500
vt 0.562500 0.750000
vt 0.562500 0.687500
vt 0.531250 0.750000
vt 0.531250 0.687500
vt 0.546875 1.000000
vt 0.531250 0.937500
vt 0.531250 0.875000
vt 0.531250 0.812500
vt 0.515625 1.000000
vt 0.500000 0.937500
vt 0.500000 0.875000
vt 0.500000 0.812500
vt 0.500000 0.750000
vt 0.500000 0.687500
vt 0.468750 0.750000
vt 0.468750 0.687500
vt 0.484375 1.000000
vt 0.468750 0.937500
vt 0.468750 0.875000
vt 0.468750 0.812500
vt 0.437500 0.875000
vt 0.437500 0.812500
vt 0.437500 0.750000
vt 0.437500 0.687500
vt 0.453125 1.000000
vt 0.437500 0.937500
vt 0.421875 1.000000
vt 0.406250 0.937500
vt 0.406250 0.875000
vt 0.406250 0.812500
vt 0.406250 0.750000
vt 0.406250 0.687500
vt 0.375000 0.875000
vt 0.375000 0.812500
vt 0.375000 0.750000
vt 0.375000 0.687500
vt 0.390625 1.000000
vt 0.375000 0.937500
vt 0.359375 1.000000
vt 0.343750 0.937500
vt 0.343750 0.875000
vt 0.343750 0.812500
vt 0.343750 0.750000
vt 0.343750 0.687500
vt 0.312500 0.875000
vt 0.312500 0.812500
vt 0.312500 0.750000
vt 0.312500 0.687500
vt 0.328125 1.000000
vt 0.312500 0.937500
vt 0.296875 1.000000
vt 0.281250 0.937500
vt 0.281250 0.875000
vt 0.281250 0.812500
vt 0.281250 0.750000
vt 0.281250 0.687500
vt 0.250000 0.750000
vt 0.250000 0.687500
vt 0.265625 1.000000
vt 0.250000 0.937500
vt 0.250000 0.875000
vt 0.250000 0.812500
vt 0.234375 1.000000
vt 0.218750 0.937500
vt 0.218750 0.875000
vt 0.218750 0.812500
vt 0.218750 0.750000
vt 0.218750 0.687500
vt 0.187500 0.750000
vt 0.187500 0.687500
vt 0.203125 1.000000
vt 0.187500 0.937500
vt 0.187500 0.875000
vt 0.187500 0.812500
vt 0.171875 1.000000
vt 0.156250 0.937500
vt 0.156250 0.875000
vt 0.156250 0.812500
vt 0.156250 0.750000
vt 0.156250 0.687500
vt 0.125000 0.750000
vt 0.125000 0.687500
vt 0.140625 1.000000
vt 0.125000 0.937500
vt 0.125000 0.875000
vt 0.125000 0.812500
vt 0.093750 0.937500
vt 0.093750 0.875000
vt 0.093750 0.812500
vt 0.093750 0.750000
vt 0.093750 0.687500
vt 0.109375 1.000000
vt 0.078125 1.000000
vt 0.062500 0.937500
vt 0.062500 0.875000
vt 0.062500 0.812500
vt 0.062500 0.750000
vt 0.062500 0.687500
vt 0.031250 0.875000
vt 0.031250 0.812500
vt 0.031250 0.750000
vt 0.031250 0.687500
vt 0.046875 1.000000
vt 0.031250 0.937500
vt 0.015625 1.000000
vt 0.000000 0.937500
vt 0.000000 0.875000
vt 0.000000 0.812500
vt 0.000000 0.750000
vt 0.000000 0.687500
vt 1.000000 0.812500
vt 0.968750 0.875000
vt 0.968750 0.812500
vt 0.968750 0.750000
vt 1.000000 0.750000
vt 1.000000 0.687500
vt 0.968750 0.687500
vt 1.000000 0.937500
vt 0.984375 1.000000
vt 0.968750 0.937500
vt 1.000000 0.875000
vt 0.953125 1.000000
vt 0.937500 0.937500
vt 0.937500 0.875000
vt 0.937500 0.812500
vt 0.937500 0.750000
vt 0.937500 0.687500
vt 0.906250 0.875000
vt 0.906250 0.812500
vt 0.906250 0.750000
vt 0.906250 0.687500
vt 0.921875 1.000000
vt 0.906250 0.937500
vt 0.890625 1.000000
vt 0.875000 0.937500
vt 0.875000 0.875000
vt 0.875000 0.812500
vt 0.875000 0.750000
vt 0.875000 0.687500
vt 0.843750 0.750000
vt 0.843750 0.687500
vt 0.859375 1.000000
vt 0.843750 0.937500
vt 0.843750 0.875000
vt 0.843750 0.812500
vt 0.828125 1.000000
vt 0.812500 0.937500
vt 0.812500 0.875000
vt 0.812500 0.812500
vt 0.812500 0.750000
vt 0.812500 0.687500
vt 0.781250 0.750000
vt 0.781250 0.687500
vt 0.796875 1.000000
vt 0.781250 0.937500
vt 0.781250 0.875000
vt 0.781250 0.812500
vt 0.765625 1.000000
vt 0.000401 0.666802
vt 0.268401 0.666802
vt 0.134401 0.666802
vt 0.999599 0.066599
vt 0.999599 0.334600
vt 0.536402 0.666802
vt 0.301901 0.666802
vt 0.999599 0.200600
vt 0.999599 0.234100
vt 0.335401 0.666802
vt 0.569902 0.666802
vt 0.999599 0.368100
vt 0.999599 0.401600
vt 0.603402 0.666802
vt 0.368901 0.666802
vt 0.999599 0.267600
vt 0.999599 0.301100
vt 0.402401 0.666802
vt 0.999599 0.033099
vt 0.999599 0.435100
vt 0.999599 0.100100
vt 0.167901 0.666802
vt 0.435901 0.666802
vt 0.033901 0.666802
vt 0.067401 0.666802
vt 0.469401 0.666802
vt 0.201401 0.666802
vt 0.999599 0.133600
vt 0.999599 0.167100
vt 0.234901 0.666802
vt 0.577826 0.313505
vt 0.547617 0.326018
vt 0.515546 0.332397
vt 0.482847 0.332397
vt 0.450777 0.326018
vt 0.420567 0.313505
vt 0.393379 0.295338
vt 0.370257 0.272217
vt 0.352091 0.245029
vt 0.339578 0.214819
vt 0.333199 0.182748
vt 0.333199 0.150049
vt 0.339578 0.117979
vt 0.352091 0.087769
vt 0.370257 0.060581
vt 0.420567 0.019293
vt 0.450777 0.006780
vt 0.482847 0.000401
vt 0.515546 0.000401
vt 0.547617 0.006780
vt 0.577826 0.019293
vt 0.605015 0.037460
vt 0.646303 0.087769
vt 0.658816 0.117979
vt 0.665195 0.150049
vt 0.665195 0.182748
vt 0.658816 0.214819
vt 0.646303 0.245029
vt 0.628136 0.272217
vt 0.502901 0.666802
vt 0.100901 0.666802
vt 0.000401 0.182748
vt 0.000401 0.150050
vt 0.006780 0.117979
vt 0.019293 0.087769
vt 0.037460 0.060581
vt 0.060581 0.037460
vt 0.087769 0.019293
vt 0.117979 0.006780
vt 0.150050 0.000401
vt 0.182748 0.000401
vt 0.214819 0.006780
vt 0.245029 0.019293
vt 0.272217 0.037460
vt 0.295338 0.060581
vt 0.313505 0.087769
vt 0.332397 0.150050
vt 0.332397 0.182748
vt 0.326018 0.214819
vt 0.313505 0.245029
vt 0.295338 0.272217
vt 0.272217 0.295338
vt 0.245029 0.313505
vt 0.182748 0.332397
vt 0.150050 0.332397
vt 0.117979 0.326018
vt 0.087769 0.313505
vt 0.060581 0.295338
vt 0.037460 0.272217
vt 0.019293 0.245029
s 0
usemtl マテリアル
f 2/1/1 1/3/1 3/2/1
f 4/4/2 3/6/2 5/5/2
f 6/7/3 5/9/3 7/8/3
f 8/10/4 7/12/4 9/11/4
f 10/13/5 9/15/5 11/14/5
f 12/16/6 11/18/6 13/17/6
f 14/19/7 13/21/7 15/20/7
f 16/22/8 15/24/8 17/23/8
f 18/25/9 17/27/9 19/26/9
f 20/28/10 19/30/10 21/29/10
f 22/31/11 21/33/11 23/32/11
f 24/34/12 23/36/12 25/35/12
f 26/37/13 25/39/13 27/38/13
f 28/40/14 27/42/14 29/41/14
f 30/43/15 29/45/15 31/44/15
f 32/46/16 31/48/16 33/47/16
f 34/49/17 33/51/17 35/50/17
f 36/52/18 35/54/18 37/53/18
f 38/55/19 37/57/19 39/56/19
f 40/58/20 39/60/20 41/59/20
f 42/61/21 41/63/21 43/62/21
f 44/64/22 43/66/22 45/65/22
f 46/67/23 45/69/23 47/68/23
f 48/70/24 47/72/24 49/71/24
f 50/73/25 49/75/25 51/74/25
f 52/76/26 51/78/26 53/77/26
f 54/79/27 53/81/27 55/80/27
f 56/82/28 55/84/28 57/83/28
f 58/85/29 57/87/29 59/86/29
f 60/88/30 59/90/30 61/89/30
f 38/91/31 6/93/31 22/92/31
f 62/94/32 61/96/32 63/95/32
f 64/97/33 63/99/33 1/98/33
f 31/100/34 63/102/34 47/101/34
f 223/103/35 67/105/35 92/104/35
f 224/106/36 68/107/36 67/105/36
f 65/108/37 69/109/37 68/107/37
f 65/108/38 225/111/38 70/110/38
f 225/111/39 66/113/39 71/112/39
f 67/105/40 72/115/40 92/114/40
f 68/107/41 73/116/41 72/115/41
f 69/109/42 74/117/42 73/116/42
f 69/109/43 70/110/43 75/118/43
f 70/110/44 71/112/44 76/119/44
f 74/117/45 75/118/45 80/120/45
f 76/119/46 81/121/46 80/120/46
f 72/115/47 77/123/47 92/122/47
f 73/116/48 78/124/48 77/123/48
f 74/117/49 79/125/49 78/124/49
f 77/123/50 82/127/50 92/126/50
f 77/123/51 78/124/51 83/128/51
f 78/124/52 79/125/52 84/129/52
f 79/125/53 80/120/53 85/130/53
f 81/121/54 86/131/54 85/130/54
f 84/129/55 85/130/55 90/132/55
f 86/131/56 91/133/56 90/132/56
f 82/127/57 87/135/57 92/134/57
f 83/128/58 88/136/58 87/135/58
f 83/128/59 84/129/59 89/137/59
f 87/135/60 93/139/60 92/138/60
f 87/135/61 88/136/61 94/140/61
f 88/136/62 89/137/62 95/141/62
f 89/137/63 90/132/63 96/142/63
f 90/132/64 91/133/64 97/143/64
f 97/143/65 102/145/65 101/144/65
f 93/139/66 98/147/66 92/146/66
f 93/139/67 94/140/67 99/148/67
f 94/140/68 95/141/68 100/149/68
f 95/141/69 96/142/69 101/144/69
f 98/147/70 103/151/70 92/150/70
f 99/148/71 104/152/71 103/151/71
f 100/149/72 105/153/72 104/152/72
f 100/149/73 101/144/73 106/154/73
f 101/144/74 102/145/74 107/155/74
f 107/155/75 112/157/75 111/156/75
f 103/151/76 108/159/76 92/158/76
f 103/151/77 104/152/77 109/160/77
f 104/152/78 105/153/78 110/161/78
f 105/153/79 106/154/79 111/156/79
f 108/159/80 109/160/80 114/162/80
f 109/160/81 110/161/81 115/163/81
f 110/161/82 111/156/82 116/164/82
f 112/157/83 117/165/83 116/164/83
f 108/159/84 113/167/84 92/166/84
f 113/167/85 118/169/85 92/168/85
f 113/167/86 114/162/86 119/170/86
f 114/162/87 115/163/87 120/171/87
f 115/163/88 116/164/88 121/172/88
f 117/165/89 122/173/89 121/172/89
f 120/171/90 125/175/90 124/174/90
f 120/171/91 121/172/91 126/176/91
f 122/173/92 127/177/92 126/176/92
f 118/169/93 123/179/93 92/178/93
f 118/169/94 119/170/94 124/174/94
f 123/179/95 128/181/95 92/180/95
f 123/179/96 124/174/96 129/182/96
f 124/174/97 125/175/97 130/183/97
f 125/175/98 126/176/98 131/184/98
f 127/177/99 132/185/99 131/184/99
f 130/183/100 135/187/100 134/186/100
f 130/183/101 131/184/101 136/188/101
f 131/184/102 132/185/102 137/189/102
f 128/181/103 133/191/103 92/190/103
f 128/181/104 129/182/104 134/186/104
f 133/191/105 138/193/105 92/192/105
f 133/191/106 134/186/106 139/194/106
f 134/186/107 135/187/107 140/195/107
f 135/187/108 136/188/108 141/196/108
f 137/189/109 142/197/109 141/196/109
f 140/195/110 141/196/110 146/198/110
f 142/197/111 147/199/111 146/198/111
f 138/193/112 143/201/112 92/200/112
f 139/194/113 144/202/113 143/201/113
f 140/195/114 145/203/114 144/202/114
f 143/201/115 148/205/115 92/204/115
f 143/201/116 144/202/116 149/206/116
f 144/202/117 145/203/117 150/207/117
f 145/203/118 146/198/118 151/208/118
f 146/198/119 147/199/119 152/209/119
f 150/207/120 151/208/120 156/210/120
f 152/209/121 157/211/121 156/210/121
f 148/205/122 153/213/122 92/212/122
f 149/206/123 154/214/123 153/213/123
f 150/207/124 155/215/124 154/214/124
f 153/213/125 158/217/125 92/216/125
f 153/213/126 154/214/126 159/218/126
f 154/214/127 155/215/127 160/219/127
f 155/215/128 156/210/128 161/220/128
f 157/211/129 162/221/129 161/220/129
f 162/221/130 167/223/130 166/222/130
f 158/217/131 163/225/131 92/224/131
f 158/217/132 159/218/132 164/226/132
f 159/218/133 160/219/133 165/227/133
f 160/219/134 161/220/134 166/222/134
f 164/226/135 169/229/135 168/228/135
f 165/227/136 170/230/136 169/229/136
f 165/227/137 166/222/137 171/231/137
f 166/222/138 167/223/138 172/232/138
f 163/225/139 168/228/139 92/233/139
f 168/228/140 173/235/140 92/234/140
f 169/229/141 174/236/141 173/235/141
f 169/229/142 170/230/142 175/237/142
f 170/230/143 171/231/143 176/238/143
f 172/232/144 177/239/144 176/238/144
f 173/235/145 174/236/145 179/240/145
f 175/237/146 180/241/146 179/240/146
f 175/237/147 176/238/147 181/242/147
f 177/239/148 182/243/148 181/242/148
f 173/235/149 178/245/149 92/244/149
f 178/245/150 183/247/150 92/246/150
f 178/245/151 179/240/151 184/248/151
f 179/240/152 180/241/152 185/249/152
f 180/241/153 181/242/153 186/250/153
f 182/243/154 187/251/154 186/250/154
f 185/252/155 190/254/155 189/253/155
f 185/252/156 186/256/156 191/255/156
f 187/257/157 192/258/157 191/255/157
f 183/259/158 188/261/158 92/260/158
f 183/259/159 184/262/159 189/253/159
f 188/261/160 193/264/160 92/263/160
f 189/253/161 194/265/161 193/264/161
f 190/254/162 195/266/162 194/265/162
f 190/254/163 191/255/163 196/267/163
f 192/258/164 197/268/164 196/267/164
f 195/266/165 200/270/165 199/269/165
f 195/266/166 196/267/166 201/271/166
f 197/268/167 202/272/167 201/271/167
f 193/264/168 198/274/168 92/273/168
f 193/264/169 194/265/169 199/269/169
f 198/274/170 203/276/170 92/275/170
f 199/269/171 204/277/171 203/276/171
f 200/270/172 205/278/172 204/277/172
f 200/270/173 201/271/173 206/279/173
f 202/272/174 207/280/174 206/279/174
f 205/278/175 206/279/175 211/281/175
f 207/280/176 212/282/176 211/281/176
f 203/276/177 208/284/177 92/283/177
f 204/277/178 209/285/178 208/284/178
f 204/277/179 205/278/179 210/286/179
f 208/284/180 213/288/180 92/287/180
f 208/284/181 209/285/181 214/289/181
f 210/286/182 215/290/182 214/289/182
f 210/286/183 211/281/183 216/291/183
f 212/282/184 217/292/184 216/291/184
f 217/292/185 222/294/185 221/293/185
f 213/288/186 218/296/186 92/295/186
f 213/288/187 214/289/187 219/297/187
f 214/289/188 215/290/188 220/298/188
f 215/290/189 216/291/189 221/293/189
f 218/296/190 223/103/190 92/299/190
f 218/296/191 219/297/191 224/106/191
f 220/298/192 65/108/192 224/106/192
f 221/293/193 225/111/193 65/108/193
f 222/294/194 66/113/194 225/111/194
f 2/1/1 3/2/1 4/300/1
f 4/4/2 5/5/2 6/301/2
f 6/7/3 7/8/3 8/302/3
f 8/10/4 9/11/4 10/303/4
f 10/13/5 11/14/5 12/304/5
f 12/16/6 13/17/6 14/305/6
f 14/19/7 15/20/7 16/306/7
f 16/22/8 17/23/8 18/307/8
f 18/25/9 19/26/9 20/308/9
f 20/28/10 21/29/10 22/309/10
f 22/31/11 23/32/11 24/310/11
f 24/34/12 25/35/12 26/311/12
f 26/37/13 27/38/13 28/312/13
f 28/40/14 29/41/14 30/313/14
f 30/43/15 31/44/15 32/314/15
f 32/46/16 33/47/16 34/315/16
f 34/49/17 35/50/17 36/316/17
f 36/52/18 37/53/18 38/317/18
f 38/55/19 39/56/19 40/318/19
f 40/58/20 41/59/20 42/319/20
f 42/61/21 43/62/21 44/320/21
f 44/64/22 45/65/22 46/321/22
f 46/67/23 47/68/23 48/322/23
f 48/70/24 49/71/24 50/323/24
f 50/73/25 51/74/25 52/324/25
f 52/76/26 53/77/26 54/325/26
f 54/79/27 55/80/27 56/326/27
f 56/82/28 57/83/28 58/327/28
f 58/85/29 59/86/29 60/328/29
f 60/88/30 61/89/30 62/329/30
f 6/93/31 2/331/31 4/330/31
f 2/331/31 62/333/31 64/332/31
f 62/333/31 58/335/31 60/334/31
f 58/335/31 54/337/31 56/336/31
f 54/337/31 50/339/31 52/338/31
f 50/339/31 46/341/31 48/340/31
f 46/341/31 42/343/31 44/342/31
f 42/343/31 38/91/31 40/344/31
f 38/91/31 34/346/31 36/345/31
f 34/346/31 30/348/31 32/347/31
f 30/348/31 26/350/31 28/349/31
f 26/350/31 22/92/31 24/351/31
f 22/92/31 18/353/31 20/352/31
f 18/353/31 14/355/31 16/354/31
f 14/355/31 10/357/31 12/356/31
f 10/357/31 6/93/31 8/358/31
f 6/93/31 62/333/31 2/331/31
f 62/333/31 54/337/31 58/335/31
f 54/337/31 46/341/31 50/339/31
f 46/341/31 38/91/31 42/343/31
f 38/91/31 30/348/31 34/346/31
f 30/348/31 22/92/31 26/350/31
f 22/92/31 14/355/31 18/353/31
f 14/355/31 6/93/31 10/357/31
f 6/93/31 54/337/31 62/333/31
f 54/337/31 38/91/31 46/341/31
f 38/91/31 22/92/31 30/348/31
f 22/92/31 6/93/31 14/355/31
f 6/93/31 38/91/31 54/337/31
f 62/94/32 63/95/32 64/359/32
f 64/97/33 1/98/33 2/360/33
f 63/102/34 3/362/34 1/361/34
f 3/362/34 7/364/34 5/363/34
f 7/364/34 11/366/34 9/365/34
f 11/366/34 15/368/34 13/367/34
f 15/368/34 19/370/34 17/369/34
f 19/370/34 23/372/34 21/371/34
f 23/372/34 27/374/34 25/373/34
f 27/374/34 31/100/34 29/375/34
f 31/100/34 35/377/34 33/376/34
f 35/377/34 39/379/34 37/378/34
f 39/379/34 43/381/34 41/380/34
f 43/381/34 47/101/34 45/382/34
f 47/101/34 51/384/34 49/383/34
f 51/384/34 55/386/34 53/385/34
f 55/386/34 59/388/34 57/387/34
f 59/388/34 63/102/34 61/389/34
f 63/102/34 7/364/34 3/362/34
f 7/364/34 15/368/34 11/366/34
f 15/368/34 23/372/34 19/370/34
f 23/372/34 31/100/34 27/374/34
f 31/100/34 39/379/34 35/377/34
f 39/379/34 47/101/34 43/381/34
f 47/101/34 55/386/34 51/384/34
f 55/386/34 63/102/34 59/388/34
f 63/102/34 15/368/34 7/364/34
f 15/368/34 31/100/34 23/372/34
f 31/100/34 47/101/34 39/379/34
f 47/101/34 63/102/34 55/386/34
f 63/102/34 31/100/34 15/368/34
f 224/106/36 67/105/36 223/103/36
f 65/108/37 68/107/37 224/106/37
f 65/108/38 70/110/38 69/109/38
f 225/111/39 71/112/39 70/110/39
f 68/107/41 72/115/41 67/105/41
f 69/109/42 73/116/42 68/107/42
f 69/109/43 75/118/43 74/117/43
f 70/110/44 76/119/44 75/118/44
f 74/117/45 80/120/45 79/125/45
f 76/119/46 80/120/46 75/118/46
f 73/116/48 77/123/48 72/115/48
f 74/117/195 78/124/195 73/116/195
f 77/123/51 83/128/51 82/127/51
f 78/124/52 84/129/52 83/128/52
f 79/125/53 85/130/53 84/129/53
f 81/121/54 85/130/54 80/120/54
f 84/129/55 90/132/55 89/137/55
f 86/131/56 90/132/56 85/130/56
f 83/128/58 87/135/58 82/127/58
f 83/128/59 89/137/59 88/136/59
f 87/135/61 94/140/61 93/139/61
f 88/136/196 95/141/196 94/140/196
f 89/137/63 96/142/63 95/141/63
f 90/132/64 97/143/64 96/142/64
f 97/143/65 101/144/65 96/142/65
f 93/139/67 99/148/67 98/147/67
f 94/140/68 100/149/68 99/148/68
f 95/141/69 101/144/69 100/149/69
f 99/148/71 103/151/71 98/147/71
f 100/149/72 104/152/72 99/148/72
f 100/149/73 106/154/73 105/153/73
f 101/144/74 107/155/74 106/154/74
f 107/155/75 111/156/75 106/154/75
f 103/151/77 109/160/77 108/159/77
f 104/152/78 110/161/78 109/160/78
f 105/153/79 111/156/79 110/161/79
f 108/159/80 114/162/80 113/167/80
f 109/160/81 115/163/81 114/162/81
f 110/161/82 116/164/82 115/163/82
f 112/157/83 116/164/83 111/156/83
f 113/167/86 119/170/86 118/169/86
f 114/162/87 120/171/87 119/170/87
f 115/163/88 121/172/88 120/171/88
f 117/165/89 121/172/89 116/164/89
f 120/171/90 124/174/90 119/170/90
f 120/171/91 126/176/91 125/175/91
f 122/173/92 126/176/92 121/172/92
f 118/169/94 124/174/94 123/179/94
f 123/179/96 129/182/96 128/181/96
f 124/174/97 130/183/97 129/182/97
f 125/175/98 131/184/98 130/183/98
f 127/177/99 131/184/99 126/176/99
f 130/183/197 134/186/197 129/182/197
f 130/183/101 136/188/101 135/187/101
f 131/184/102 137/189/102 136/188/102
f 128/181/104 134/186/104 133/191/104
f 133/191/106 139/194/106 138/193/106
f 134/186/107 140/195/107 139/194/107
f 135/187/108 141/196/108 140/195/108
f 137/189/109 141/196/109 136/188/109
f 140/195/110 146/198/110 145/203/110
f 142/197/111 146/198/111 141/196/111
f 139/194/113 143/201/113 138/193/113
f 140/195/114 144/202/114 139/194/114
f 143/201/116 149/206/116 148/205/116
f 144/202/117 150/207/117 149/206/117
f 145/203/118 151/208/118 150/207/118
f 146/198/119 152/209/119 151/208/119
f 150/207/120 156/210/120 155/215/120
f 152/209/121 156/210/121 151/208/121
f 149/206/123 153/213/123 148/205/123
f 150/207/124 154/214/124 149/206/124
f 153/213/126 159/218/126 158/217/126
f 154/214/127 160/219/127 159/218/127
f 155/215/128 161/220/128 160/219/128
f 157/211/129 161/220/129 156/210/129
f 162/221/130 166/222/130 161/220/130
f 158/217/132 164/226/132 163/225/132
f 159/218/133 165/227/133 164/226/133
f 160/219/134 166/222/134 165/227/134
f 164/226/135 168/228/135 163/225/135
f 165/227/136 169/229/136 164/226/136
f 165/227/137 171/231/137 170/230/137
f 166/222/138 172/232/138 171/231/138
f 169/229/141 173/235/141 168/228/141
f 169/229/198 175/237/198 174/236/198
f 170/230/143 176/238/143 175/237/143
f 172/232/144 176/238/144 171/231/144
f 173/235/145 179/240/145 178/245/145
f 175/237/146 179/240/146 174/236/146
f 175/237/147 181/242/147 180/241/147
f 177/239/148 181/242/148 176/238/148
f 178/245/151 184/248/151 183/247/151
f 179/240/152 185/249/152 184/248/152
f 180/241/153 186/250/153 185/249/153
f 182/243/154 186/250/154 181/242/154
f 185/252/155 189/253/155 184/262/155
f 185/252/156 191/255/156 190/254/156
f 187/257/157 191/255/157 186/256/157
f 183/259/159 189/253/159 188/261/159
f 189/253/161 193/264/161 188/261/161
f 190/254/162 194/265/162 189/253/162
f 190/254/163 196/267/163 195/266/163
f 192/258/164 196/267/164 191/255/164
f 195/266/199 199/269/199 194/265/199
f 195/266/166 201/271/166 200/270/166
f 197/268/167 201/271/167 196/267/167
f 193/264/169 199/269/169 198/274/169
f 199/269/171 203/276/171 198/274/171
f 200/270/172 204/277/172 199/269/172
f 200/270/173 206/279/173 205/278/173
f 202/272/174 206/279/174 201/271/174
f 205/278/175 211/281/175 210/286/175
f 207/280/176 211/281/176 206/279/176
f 204/277/178 208/284/178 203/276/178
f 204/277/179 210/286/179 209/285/179
f 208/284/181 214/289/181 213/288/181
f 210/286/182 214/289/182 209/285/182
f 210/286/183 216/291/183 215/290/183
f 212/282/184 216/291/184 211/281/184
f 217/292/185 221/293/185 216/291/185
f 213/288/187 219/297/187 218/296/187
f 214/289/188 220/298/188 219/297/188
f 215/290/189 221/293/189 220/298/189
f 218/296/191 224/106/191 223/103/191
f 220/298/192 224/106/192 219/297/192
f 221/293/193 65/108/193 220/298/193
f 222/294/194 225/111/194 221/293/194
