# Blender 4.4.1
# www.blender.org
mtllib hasigo.mtl
o 円柱.002
v -0.199410 0.316115 -0.050000
v 0.657955 0.316115 -0.050000
v -0.199410 0.306360 -0.049039
v 0.657955 0.306360 -0.049039
v -0.199410 0.296981 -0.046194
v 0.657955 0.296981 -0.046194
v -0.199410 0.288336 -0.041573
v 0.657955 0.288336 -0.041573
v -0.199410 0.280759 -0.035355
v 0.657955 0.280759 -0.035355
v -0.199410 0.274541 -0.027779
v 0.657955 0.274541 -0.027779
v -0.199410 0.269921 -0.019134
v 0.657955 0.269921 -0.019134
v -0.199410 0.267075 -0.009755
v 0.657955 0.267075 -0.009755
v -0.199410 0.266115 0.000000
v 0.657955 0.266115 0.000000
v -0.199410 0.267075 0.009755
v 0.657955 0.267075 0.009755
v -0.199410 0.269921 0.019134
v 0.657955 0.269921 0.019134
v -0.199410 0.274541 0.027779
v 0.657955 0.274541 0.027779
v -0.199410 0.280759 0.035355
v 0.657955 0.280759 0.035355
v -0.199410 0.288336 0.041573
v 0.657955 0.288336 0.041573
v -0.199410 0.296981 0.046194
v 0.657955 0.296981 0.046194
v -0.199410 0.306360 0.049039
v 0.657955 0.306360 0.049039
v -0.199410 0.316115 0.050000
v 0.657955 0.316115 0.050000
v -0.199410 0.325869 0.049039
v 0.657955 0.325869 0.049039
v -0.199410 0.335249 0.046194
v 0.657955 0.335249 0.046194
v -0.199410 0.343893 0.041573
v 0.657955 0.343893 0.041573
v -0.199410 0.351470 0.035355
v 0.657955 0.351470 0.035355
v -0.199410 0.357688 0.027779
v 0.657955 0.357688 0.027779
v -0.199410 0.362309 0.019134
v 0.657955 0.362309 0.019134
v -0.199410 0.365154 0.009755
v 0.657955 0.365154 0.009755
v -0.199410 0.366115 0.000000
v 0.657955 0.366115 0.000000
v -0.199410 0.365154 -0.009755
v 0.657955 0.365154 -0.009755
v -0.199410 0.362309 -0.019134
v 0.657955 0.362309 -0.019134
v -0.199410 0.357688 -0.027779
v 0.657955 0.357688 -0.027779
v -0.199410 0.351470 -0.035355
v 0.657955 0.351470 -0.035355
v -0.199410 0.343893 -0.041573
v 0.657955 0.343893 -0.041573
v -0.199410 0.335249 -0.046194
v 0.657955 0.335249 -0.046194
v -0.199410 0.325869 -0.049039
v 0.657955 0.325869 -0.049039
v -0.163868 -0.500000 -0.050000
v -0.163868 0.500000 -0.050000
v -0.147142 -0.500000 -0.049039
v -0.147142 0.500000 -0.049039
v -0.131058 -0.500000 -0.046194
v -0.131058 0.500000 -0.046194
v -0.116235 -0.500000 -0.041573
v -0.116235 0.500000 -0.041573
v -0.103243 -0.500000 -0.035355
v -0.103243 0.500000 -0.035355
v -0.092581 -0.500000 -0.027779
v -0.092581 0.500000 -0.027779
v -0.084658 -0.500000 -0.019134
v -0.084658 0.500000 -0.019134
v -0.079779 -0.500000 -0.009755
v -0.079779 0.500000 -0.009755
v -0.078132 -0.500000 0.000000
v -0.078132 0.500000 0.000000
v -0.079779 -0.500000 0.009755
v -0.079779 0.500000 0.009755
v -0.084658 -0.500000 0.019134
v -0.084658 0.500000 0.019134
v -0.092581 -0.500000 0.027779
v -0.092581 0.500000 0.027779
v -0.103243 -0.500000 0.035355
v -0.103243 0.500000 0.035355
v -0.116235 -0.500000 0.041573
v -0.116235 0.500000 0.041573
v -0.131058 -0.500000 0.046194
v -0.131058 0.500000 0.046194
v -0.147142 -0.500000 0.049039
v -0.147142 0.500000 0.049039
v -0.163868 -0.500000 0.050000
v -0.163868 0.500000 0.050000
v -0.180594 -0.500000 0.049039
v -0.180594 0.500000 0.049039
v -0.196678 -0.500000 0.046194
v -0.196678 0.500000 0.046194
v -0.211501 -0.500000 0.041573
v -0.211501 0.500000 0.041573
v -0.224493 -0.500000 0.035355
v -0.224493 0.500000 0.035355
v -0.235155 -0.500000 0.027779
v -0.235155 0.500000 0.027779
v -0.243078 -0.500000 0.019134
v -0.243078 0.500000 0.019134
v -0.247957 -0.500000 0.009755
v -0.247957 0.500000 0.009755
v -0.249605 -0.500000 0.000000
v -0.249605 0.500000 0.000000
v -0.247957 -0.500000 -0.009755
v -0.247957 0.500000 -0.009755
v -0.243078 -0.500000 -0.019134
v -0.243078 0.500000 -0.019134
v -0.235155 -0.500000 -0.027779
v -0.235155 0.500000 -0.027779
v -0.224493 -0.500000 -0.035355
v -0.224493 0.500000 -0.035355
v -0.211501 -0.500000 -0.041573
v -0.211501 0.500000 -0.041573
v -0.196678 -0.500000 -0.046194
v -0.196678 0.500000 -0.046194
v -0.180594 -0.500000 -0.049039
v -0.180594 0.500000 -0.049039
v 0.664659 -0.500000 -0.050000
v 0.664659 0.500000 -0.050000
v 0.681385 -0.500000 -0.049039
v 0.681385 0.500000 -0.049039
v 0.697469 -0.500000 -0.046194
v 0.697469 0.500000 -0.046194
v 0.712291 -0.500000 -0.041573
v 0.712291 0.500000 -0.041573
v 0.725284 -0.500000 -0.035355
v 0.725284 0.500000 -0.035355
v 0.735946 -0.500000 -0.027779
v 0.735946 0.500000 -0.027779
v 0.743869 -0.500000 -0.019134
v 0.743869 0.500000 -0.019134
v 0.748748 -0.500000 -0.009755
v 0.748748 0.500000 -0.009755
v 0.750395 -0.500000 0.000000
v 0.750395 0.500000 0.000000
v 0.748748 -0.500000 0.009755
v 0.748748 0.500000 0.009755
v 0.743869 -0.500000 0.019134
v 0.743869 0.500000 0.019134
v 0.735946 -0.500000 0.027779
v 0.735946 0.500000 0.027779
v 0.725284 -0.500000 0.035355
v 0.725284 0.500000 0.035355
v 0.712291 -0.500000 0.041573
v 0.712291 0.500000 0.041573
v 0.697469 -0.500000 0.046194
v 0.697469 0.500000 0.046194
v 0.681385 -0.500000 0.049039
v 0.681385 0.500000 0.049039
v 0.664659 -0.500000 0.050000
v 0.664659 0.500000 0.050000
v 0.647932 -0.500000 0.049039
v 0.647932 0.500000 0.049039
v 0.631849 -0.500000 0.046194
v 0.631849 0.500000 0.046194
v 0.617026 -0.500000 0.041573
v 0.617026 0.500000 0.041573
v 0.604034 -0.500000 0.035355
v 0.604034 0.500000 0.035355
v 0.593371 -0.500000 0.027779
v 0.593371 0.500000 0.027779
v 0.585449 -0.500000 0.019134
v 0.585449 0.500000 0.019134
v 0.580570 -0.500000 0.009755
v 0.580570 0.500000 0.009755
v 0.578922 -0.500000 0.000000
v 0.578922 0.500000 0.000000
v 0.580570 -0.500000 -0.009755
v 0.580570 0.500000 -0.009755
v 0.585449 -0.500000 -0.019134
v 0.585449 0.500000 -0.019134
v 0.593371 -0.500000 -0.027779
v 0.593371 0.500000 -0.027779
v 0.604034 -0.500000 -0.035355
v 0.604034 0.500000 -0.035355
v 0.617026 -0.500000 -0.041573
v 0.617026 0.500000 -0.041573
v 0.631849 -0.500000 -0.046194
v 0.631849 0.500000 -0.046194
v 0.647932 -0.500000 -0.049039
v 0.647932 0.500000 -0.049039
v -0.199410 -0.190522 -0.050000
v 0.657955 -0.190522 -0.050000
v -0.199410 -0.200277 -0.049039
v 0.657955 -0.200277 -0.049039
v -0.199410 -0.209657 -0.046194
v 0.657955 -0.209657 -0.046194
v -0.199410 -0.218301 -0.041573
v 0.657955 -0.218301 -0.041573
v -0.199410 -0.225878 -0.035355
v 0.657955 -0.225878 -0.035355
v -0.199410 -0.232096 -0.027779
v 0.657955 -0.232096 -0.027779
v -0.199410 -0.236716 -0.019134
v 0.657955 -0.236716 -0.019134
v -0.199410 -0.239562 -0.009755
v 0.657955 -0.239562 -0.009755
v -0.199410 -0.240522 0.000000
v 0.657955 -0.240522 0.000000
v -0.199410 -0.239562 0.009755
v 0.657955 -0.239562 0.009755
v -0.199410 -0.236716 0.019134
v 0.657955 -0.236716 0.019134
v -0.199410 -0.232096 0.027779
v 0.657955 -0.232096 0.027779
v -0.199410 -0.225878 0.035355
v 0.657955 -0.225878 0.035355
v -0.199410 -0.218301 0.041573
v 0.657955 -0.218301 0.041573
v -0.199410 -0.209657 0.046194
v 0.657955 -0.209657 0.046194
v -0.199410 -0.200277 0.049039
v 0.657955 -0.200277 0.049039
v -0.199410 -0.190522 0.050000
v 0.657955 -0.190522 0.050000
v -0.199410 -0.180768 0.049039
v 0.657955 -0.180768 0.049039
v -0.199410 -0.171388 0.046194
v 0.657955 -0.171388 0.046194
v -0.199410 -0.162744 0.041573
v 0.657955 -0.162744 0.041573
v -0.199410 -0.155167 0.035355
v 0.657955 -0.155167 0.035355
v -0.199410 -0.148949 0.027779
v 0.657955 -0.148949 0.027779
v -0.199410 -0.144328 0.019134
v 0.657955 -0.144328 0.019134
v -0.199410 -0.141483 0.009755
v 0.657955 -0.141483 0.009755
v -0.199410 -0.140522 0.000000
v 0.657955 -0.140522 0.000000
v -0.199410 -0.141483 -0.009755
v 0.657955 -0.141483 -0.009755
v -0.199410 -0.144328 -0.019134
v 0.657955 -0.144328 -0.019134
v -0.199410 -0.148949 -0.027779
v 0.657955 -0.148949 -0.027779
v -0.199410 -0.155167 -0.035355
v 0.657955 -0.155167 -0.035355
v -0.199410 -0.162744 -0.041573
v 0.657955 -0.162744 -0.041573
v -0.199410 -0.171388 -0.046194
v 0.657955 -0.171388 -0.046194
v -0.199410 -0.180768 -0.049039
v 0.657955 -0.180768 -0.049039
vn -0.0000 -0.0980 -0.9952
vn -0.0000 -0.2903 -0.9569
vn -0.0000 -0.4714 -0.8819
vn -0.0000 -0.6344 -0.7730
vn -0.0000 -0.7730 -0.6344
vn -0.0000 -0.8819 -0.4714
vn -0.0000 -0.9569 -0.2903
vn -0.0000 -0.9952 -0.0980
vn -0.0000 -0.9952 0.0980
vn -0.0000 -0.9569 0.2903
vn -0.0000 -0.8819 0.4714
vn -0.0000 -0.7730 0.6344
vn -0.0000 -0.6344 0.7730
vn -0.0000 -0.4714 0.8819
vn -0.0000 -0.2903 0.9569
vn -0.0000 -0.0980 0.9952
vn -0.0000 0.0980 0.9952
vn -0.0000 0.2903 0.9569
vn -0.0000 0.4714 0.8819
vn -0.0000 0.6344 0.7730
vn -0.0000 0.7730 0.6344
vn -0.0000 0.8819 0.4714
vn -0.0000 0.9569 0.2903
vn -0.0000 0.9952 0.0980
vn -0.0000 0.9952 -0.0980
vn -0.0000 0.9569 -0.2903
vn -0.0000 0.8819 -0.4714
vn -0.0000 0.7730 -0.6344
vn -0.0000 0.6344 -0.7730
vn -0.0000 0.4714 -0.8819
vn 1.0000 -0.0000 -0.0000
vn -0.0000 0.2903 -0.9569
vn -0.0000 0.0980 -0.9952
vn -1.0000 -0.0000 -0.0000
vn 0.0573 -0.0000 -0.9984
vn 0.1742 -0.0000 -0.9847
vn 0.2976 -0.0000 -0.9547
vn 0.4317 -0.0000 -0.9020
vn 0.5793 -0.0000 -0.8151
vn 0.7372 -0.0000 -0.6757
vn 0.8872 -0.0000 -0.4615
vn 0.9860 -0.0000 -0.1665
vn 0.9860 -0.0000 0.1665
vn 0.8872 -0.0000 0.4615
vn 0.7372 -0.0000 0.6757
vn 0.5793 -0.0000 0.8151
vn 0.4317 -0.0000 0.9020
vn 0.2976 -0.0000 0.9547
vn 0.1742 -0.0000 0.9847
vn 0.0573 -0.0000 0.9984
vn -0.0573 -0.0000 0.9984
vn -0.1742 -0.0000 0.9847
vn -0.2976 -0.0000 0.9547
vn -0.4317 -0.0000 0.9020
vn -0.5793 -0.0000 0.8151
vn -0.7372 -0.0000 0.6757
vn -0.8872 -0.0000 0.4615
vn -0.9860 -0.0000 0.1665
vn -0.9860 -0.0000 -0.1665
vn -0.8872 -0.0000 -0.4615
vn -0.7372 -0.0000 -0.6757
vn -0.5793 -0.0000 -0.8151
vn -0.4317 -0.0000 -0.9020
vn -0.2976 -0.0000 -0.9547
vn -0.0000 1.0000 -0.0000
vn -0.1742 -0.0000 -0.9847
vn -0.0573 -0.0000 -0.9984
vn -0.0000 -1.0000 -0.0000
vn -0.0000 -1.0000 -0.0001
vn -0.0000 -1.0000 0.0001
vt 0.250000 0.000332
vt 0.000332 0.015936
vt 0.000332 0.000332
vt 0.250000 0.015936
vt 0.000332 0.031541
vt 0.250000 0.031541
vt 0.000332 0.047145
vt 0.250000 0.047145
vt 0.000332 0.062749
vt 0.250000 0.062749
vt 0.000332 0.078353
vt 0.250000 0.078353
vt 0.000332 0.093958
vt 0.250000 0.093957
vt 0.000332 0.109562
vt 0.250000 0.109562
vt 0.000332 0.125166
vt 0.250000 0.125166
vt 0.000332 0.140770
vt 0.250000 0.140770
vt 0.000332 0.156374
vt 0.250000 0.156374
vt 0.000332 0.171979
vt 0.250000 0.171979
vt 0.000332 0.187583
vt 0.250000 0.187583
vt 0.000332 0.203187
vt 0.250000 0.203187
vt 0.000332 0.218791
vt 0.250000 0.218791
vt 0.000332 0.234396
vt 0.250000 0.234396
vt 0.000332 0.250000
vt 0.250000 0.250000
vt 0.000332 0.265604
vt 0.250000 0.265604
vt 0.000332 0.281208
vt 0.250000 0.281208
vt 0.000332 0.296813
vt 0.250000 0.296813
vt 0.000332 0.312417
vt 0.250000 0.312417
vt 0.000332 0.328021
vt 0.250000 0.328021
vt 0.000332 0.343625
vt 0.250000 0.343625
vt 0.000332 0.359230
vt 0.250000 0.359230
vt 0.000332 0.374834
vt 0.250000 0.374834
vt 0.000332 0.390438
vt 0.250000 0.390438
vt 0.000332 0.406042
vt 0.250000 0.406042
vt 0.000332 0.421647
vt 0.250000 0.421647
vt 0.000332 0.437251
vt 0.250000 0.437251
vt 0.000332 0.452855
vt 0.250000 0.452855
vt 0.000332 0.468459
vt 0.574331 0.744107
vt 0.723799 0.823999
vt 0.643907 0.973467
vt 0.250000 0.468459
vt 0.000332 0.484064
vt 0.250000 0.484064
vt 0.000332 0.499668
vt 0.489191 0.607849
vt 0.358181 0.500332
vt 0.250664 0.631342
vt 0.500332 0.000332
vt 0.250664 0.015936
vt 0.250664 0.000332
vt 0.500332 0.015936
vt 0.250664 0.031541
vt 0.500332 0.031541
vt 0.250664 0.047145
vt 0.500332 0.047145
vt 0.250664 0.062749
vt 0.500332 0.062749
vt 0.250664 0.078353
vt 0.500332 0.078353
vt 0.250664 0.093957
vt 0.500332 0.093957
vt 0.250664 0.109562
vt 0.500332 0.109562
vt 0.250664 0.125166
vt 0.500332 0.125166
vt 0.250664 0.140770
vt 0.500332 0.140770
vt 0.250664 0.156374
vt 0.500332 0.156374
vt 0.250664 0.171979
vt 0.500332 0.171979
vt 0.250664 0.187583
vt 0.500332 0.187583
vt 0.250664 0.203187
vt 0.500332 0.203187
vt 0.250664 0.218791
vt 0.500332 0.218791
vt 0.250664 0.234396
vt 0.500332 0.234396
vt 0.250664 0.250000
vt 0.500332 0.250000
vt 0.250664 0.265604
vt 0.500332 0.265604
vt 0.250664 0.281208
vt 0.500332 0.281208
vt 0.250664 0.296813
vt 0.500332 0.296813
vt 0.250664 0.312417
vt 0.500332 0.312417
vt 0.250664 0.328021
vt 0.500332 0.328021
vt 0.250664 0.343625
vt 0.500332 0.343625
vt 0.250664 0.359230
vt 0.500332 0.359230
vt 0.250664 0.374834
vt 0.500332 0.374834
vt 0.250664 0.390438
vt 0.500332 0.390438
vt 0.250664 0.406042
vt 0.500332 0.406042
vt 0.250664 0.421647
vt 0.500332 0.421647
vt 0.250664 0.437251
vt 0.500332 0.437251
vt 0.250664 0.452855
vt 0.500332 0.452855
vt 0.250664 0.468459
vt 0.813522 0.744107
vt 0.962990 0.823999
vt 0.883098 0.973467
vt 0.500332 0.468459
vt 0.250664 0.484064
vt 0.500332 0.484064
vt 0.250664 0.499668
vt 0.728382 0.607849
vt 0.597372 0.500332
vt 0.489855 0.631342
vt 0.750664 0.000332
vt 0.500996 0.015936
vt 0.500996 0.000332
vt 0.750664 0.015936
vt 0.500996 0.031541
vt 0.750664 0.031540
vt 0.500996 0.047145
vt 0.750664 0.047145
vt 0.500996 0.062749
vt 0.750664 0.062749
vt 0.500996 0.078353
vt 0.750664 0.078353
vt 0.500996 0.093957
vt 0.750664 0.093957
vt 0.500996 0.109562
vt 0.750664 0.109562
vt 0.500996 0.125166
vt 0.750664 0.125166
vt 0.500996 0.140770
vt 0.750664 0.156374
vt 0.500996 0.156374
vt 0.500996 0.171979
vt 0.750664 0.171979
vt 0.500996 0.187583
vt 0.750664 0.203187
vt 0.500996 0.203187
vt 0.500996 0.218791
vt 0.750664 0.218791
vt 0.500996 0.234396
vt 0.750664 0.234396
vt 0.500996 0.250000
vt 0.750664 0.250000
vt 0.500996 0.265604
vt 0.750664 0.265604
vt 0.500996 0.281208
vt 0.750664 0.281208
vt 0.500996 0.296813
vt 0.750664 0.296813
vt 0.500996 0.312417
vt 0.750664 0.312417
vt 0.500996 0.328021
vt 0.750664 0.328021
vt 0.500996 0.343625
vt 0.750664 0.359230
vt 0.500996 0.359230
vt 0.500996 0.374834
vt 0.750664 0.390438
vt 0.500996 0.390438
vt 0.500996 0.406042
vt 0.750664 0.406042
vt 0.500996 0.421647
vt 0.750664 0.421647
vt 0.500996 0.437251
vt 0.750664 0.437251
vt 0.500996 0.452855
vt 0.750664 0.452855
vt 0.500996 0.468459
vt 0.835804 0.004915
vt 0.985272 0.084808
vt 0.905380 0.234276
vt 0.750664 0.468459
vt 0.500996 0.484064
vt 0.750664 0.484064
vt 0.500996 0.499668
vt 0.967574 0.607849
vt 0.836564 0.500332
vt 0.729047 0.631342
vt 0.250000 0.500332
vt 0.000332 0.515936
vt 0.000332 0.500332
vt 0.250000 0.515936
vt 0.000332 0.531541
vt 0.250000 0.531541
vt 0.000332 0.547145
vt 0.250000 0.547145
vt 0.000332 0.562749
vt 0.250000 0.562749
vt 0.000332 0.578353
vt 0.250000 0.578353
vt 0.000332 0.593958
vt 0.250000 0.593958
vt 0.000332 0.609562
vt 0.250000 0.609562
vt 0.000332 0.625166
vt 0.250000 0.625166
vt 0.000332 0.640770
vt 0.250000 0.640770
vt 0.000332 0.656375
vt 0.250000 0.656375
vt 0.000332 0.671979
vt 0.250000 0.671979
vt 0.000332 0.687583
vt 0.250000 0.687583
vt 0.000332 0.703187
vt 0.250000 0.703187
vt 0.000332 0.718792
vt 0.250000 0.718792
vt 0.000332 0.734396
vt 0.250000 0.734396
vt 0.000332 0.750000
vt 0.250000 0.750000
vt 0.000332 0.765604
vt 0.250000 0.765604
vt 0.000332 0.781209
vt 0.250000 0.781209
vt 0.000332 0.796813
vt 0.250000 0.796813
vt 0.000332 0.812417
vt 0.250000 0.812417
vt 0.000332 0.828021
vt 0.250000 0.828021
vt 0.000332 0.843626
vt 0.250000 0.843625
vt 0.000332 0.859230
vt 0.250000 0.859230
vt 0.000332 0.874834
vt 0.250000 0.874834
vt 0.000332 0.890438
vt 0.250000 0.890438
vt 0.000332 0.906043
vt 0.250000 0.906043
vt 0.000332 0.921647
vt 0.250000 0.921647
vt 0.000332 0.937251
vt 0.250000 0.937251
vt 0.000332 0.952855
vt 0.250000 0.952855
vt 0.000332 0.968459
vt 0.835804 0.244106
vt 0.985272 0.323999
vt 0.905380 0.473467
vt 0.250000 0.968459
vt 0.000332 0.984064
vt 0.250000 0.984064
vt 0.000332 0.999668
vt 0.489191 0.847040
vt 0.358181 0.739523
vt 0.250664 0.870533
vt 0.620865 0.978050
vt 0.597372 0.978050
vt 0.574331 0.973467
vt 0.552626 0.964477
vt 0.533093 0.951425
vt 0.516481 0.934813
vt 0.503429 0.915279
vt 0.494438 0.893575
vt 0.489855 0.870533
vt 0.489855 0.847040
vt 0.494439 0.823999
vt 0.503429 0.802294
vt 0.516481 0.782761
vt 0.533093 0.766149
vt 0.552626 0.753097
vt 0.597372 0.739523
vt 0.620865 0.739523
vt 0.643907 0.744107
vt 0.665611 0.753097
vt 0.685145 0.766149
vt 0.701757 0.782761
vt 0.714809 0.802294
vt 0.728382 0.847040
vt 0.728382 0.870533
vt 0.723799 0.893575
vt 0.714809 0.915279
vt 0.701757 0.934813
vt 0.685145 0.951425
vt 0.665611 0.964477
vt 0.250000 0.499668
vt 0.255247 0.654384
vt 0.264238 0.676088
vt 0.277290 0.695622
vt 0.293902 0.712234
vt 0.313435 0.725286
vt 0.335140 0.734276
vt 0.358181 0.738859
vt 0.381674 0.738859
vt 0.404716 0.734276
vt 0.426420 0.725286
vt 0.445954 0.712234
vt 0.462566 0.695622
vt 0.475618 0.676088
vt 0.484608 0.654383
vt 0.489191 0.631342
vt 0.484608 0.584808
vt 0.475618 0.563103
vt 0.462566 0.543570
vt 0.445954 0.526958
vt 0.426420 0.513906
vt 0.404715 0.504915
vt 0.381674 0.500332
vt 0.335140 0.504915
vt 0.313435 0.513906
vt 0.293902 0.526958
vt 0.277290 0.543570
vt 0.264238 0.563103
vt 0.255247 0.584808
vt 0.250664 0.607849
vt 0.860056 0.978050
vt 0.836564 0.978050
vt 0.813522 0.973467
vt 0.791818 0.964477
vt 0.772284 0.951425
vt 0.755672 0.934813
vt 0.742620 0.915279
vt 0.733630 0.893575
vt 0.729047 0.870533
vt 0.729047 0.847040
vt 0.733630 0.823999
vt 0.742620 0.802294
vt 0.755672 0.782761
vt 0.772284 0.766149
vt 0.791818 0.753097
vt 0.836564 0.739523
vt 0.860057 0.739523
vt 0.883098 0.744107
vt 0.904803 0.753097
vt 0.924336 0.766149
vt 0.940948 0.782761
vt 0.954000 0.802294
vt 0.967574 0.847040
vt 0.967574 0.870533
vt 0.962990 0.893575
vt 0.954000 0.915279
vt 0.940948 0.934813
vt 0.924336 0.951425
vt 0.904803 0.964477
vt 0.500332 0.499668
vt 0.494439 0.654384
vt 0.503429 0.676088
vt 0.516481 0.695622
vt 0.533093 0.712234
vt 0.552626 0.725286
vt 0.574331 0.734276
vt 0.597372 0.738859
vt 0.620865 0.738859
vt 0.643907 0.734276
vt 0.665611 0.725286
vt 0.685145 0.712234
vt 0.701757 0.695622
vt 0.714809 0.676088
vt 0.723799 0.654383
vt 0.728382 0.631342
vt 0.723799 0.584808
vt 0.714809 0.563103
vt 0.701757 0.543570
vt 0.685145 0.526958
vt 0.665611 0.513906
vt 0.643907 0.504915
vt 0.620865 0.500332
vt 0.574331 0.504915
vt 0.552626 0.513906
vt 0.533093 0.526958
vt 0.516481 0.543570
vt 0.503429 0.563103
vt 0.494439 0.584808
vt 0.489855 0.607849
vt 0.750664 0.140770
vt 0.750664 0.187583
vt 0.750664 0.343625
vt 0.750664 0.374834
vt 0.882338 0.238859
vt 0.858845 0.238859
vt 0.835804 0.234276
vt 0.814099 0.225286
vt 0.794566 0.212234
vt 0.777954 0.195622
vt 0.764902 0.176088
vt 0.755911 0.154383
vt 0.751328 0.131342
vt 0.751328 0.107849
vt 0.755911 0.084808
vt 0.764902 0.063103
vt 0.777954 0.043569
vt 0.794566 0.026958
vt 0.814099 0.013906
vt 0.858845 0.000332
vt 0.882338 0.000332
vt 0.905380 0.004915
vt 0.927084 0.013906
vt 0.946618 0.026958
vt 0.963230 0.043570
vt 0.976282 0.063103
vt 0.989855 0.107849
vt 0.989855 0.131342
vt 0.985272 0.154384
vt 0.976282 0.176088
vt 0.963230 0.195622
vt 0.946618 0.212234
vt 0.927084 0.225286
vt 0.750664 0.499668
vt 0.733630 0.654384
vt 0.742620 0.676088
vt 0.755672 0.695622
vt 0.772284 0.712234
vt 0.791818 0.725286
vt 0.813522 0.734276
vt 0.836564 0.738859
vt 0.860057 0.738859
vt 0.883098 0.734276
vt 0.904803 0.725286
vt 0.924336 0.712234
vt 0.940948 0.695622
vt 0.954000 0.676088
vt 0.962990 0.654383
vt 0.967574 0.631342
vt 0.962990 0.584808
vt 0.954000 0.563103
vt 0.940948 0.543570
vt 0.924336 0.526958
vt 0.904803 0.513906
vt 0.883098 0.504915
vt 0.860056 0.500332
vt 0.813522 0.504915
vt 0.791818 0.513906
vt 0.772284 0.526958
vt 0.755672 0.543570
vt 0.742620 0.563103
vt 0.733630 0.584808
vt 0.729047 0.607849
vt 0.882338 0.478050
vt 0.858845 0.478050
vt 0.835804 0.473467
vt 0.814099 0.464477
vt 0.794566 0.451425
vt 0.777954 0.434813
vt 0.764902 0.415279
vt 0.755911 0.393575
vt 0.751328 0.370533
vt 0.751328 0.347040
vt 0.755911 0.323999
vt 0.764902 0.302294
vt 0.777954 0.282761
vt 0.794566 0.266149
vt 0.814099 0.253097
vt 0.858845 0.239523
vt 0.882338 0.239523
vt 0.905380 0.244106
vt 0.927084 0.253097
vt 0.946618 0.266149
vt 0.963230 0.282761
vt 0.976282 0.302294
vt 0.989855 0.347040
vt 0.989855 0.370533
vt 0.985272 0.393575
vt 0.976282 0.415279
vt 0.963230 0.434813
vt 0.946618 0.451425
vt 0.927084 0.464477
vt 0.250000 0.999668
vt 0.255247 0.893575
vt 0.264238 0.915279
vt 0.277290 0.934813
vt 0.293902 0.951425
vt 0.313435 0.964477
vt 0.335140 0.973467
vt 0.358181 0.978050
vt 0.381674 0.978050
vt 0.404716 0.973467
vt 0.426420 0.964477
vt 0.445954 0.951425
vt 0.462566 0.934813
vt 0.475618 0.915279
vt 0.484608 0.893575
vt 0.489191 0.870533
vt 0.484608 0.823999
vt 0.475618 0.802294
vt 0.462566 0.782761
vt 0.445954 0.766149
vt 0.426420 0.753097
vt 0.404715 0.744106
vt 0.381674 0.739523
vt 0.335140 0.744106
vt 0.313435 0.753097
vt 0.293902 0.766149
vt 0.277290 0.782761
vt 0.264238 0.802294
vt 0.255247 0.823999
vt 0.250664 0.847040
s 0
usemtl マテリアル
f 2/1/1 3/2/1 1/3/1
f 4/4/2 5/5/2 3/2/2
f 6/6/3 7/7/3 5/5/3
f 8/8/4 9/9/4 7/7/4
f 10/10/5 11/11/5 9/9/5
f 12/12/6 13/13/6 11/11/6
f 14/14/7 15/15/7 13/13/7
f 16/16/8 17/17/8 15/15/8
f 18/18/9 19/19/9 17/17/9
f 20/20/10 21/21/10 19/19/10
f 22/22/11 23/23/11 21/21/11
f 24/24/12 25/25/12 23/23/12
f 26/26/13 27/27/13 25/25/13
f 28/28/14 29/29/14 27/27/14
f 30/30/15 31/31/15 29/29/15
f 32/32/16 33/33/16 31/31/16
f 34/34/17 35/35/17 33/33/17
f 36/36/18 37/37/18 35/35/18
f 38/38/19 39/39/19 37/37/19
f 40/40/20 41/41/20 39/39/20
f 42/42/21 43/43/21 41/41/21
f 44/44/22 45/45/22 43/43/22
f 46/46/23 47/47/23 45/45/23
f 48/48/24 49/49/24 47/47/24
f 50/50/25 51/51/25 49/49/25
f 52/52/26 53/53/26 51/51/26
f 54/54/27 55/55/27 53/53/27
f 56/56/28 57/57/28 55/55/28
f 58/58/29 59/59/29 57/57/29
f 60/60/30 61/61/30 59/59/30
f 38/62/31 22/63/31 6/64/31
f 62/65/32 63/66/32 61/61/32
f 64/67/33 1/68/33 63/66/33
f 31/69/34 47/70/34 63/71/34
f 66/72/35 67/73/35 65/74/35
f 68/75/36 69/76/36 67/73/36
f 70/77/37 71/78/37 69/76/37
f 72/79/38 73/80/38 71/78/38
f 74/81/39 75/82/39 73/80/39
f 76/83/40 77/84/40 75/82/40
f 78/85/41 79/86/41 77/84/41
f 80/87/42 81/88/42 79/86/42
f 82/89/43 83/90/43 81/88/43
f 84/91/44 85/92/44 83/90/44
f 86/93/45 87/94/45 85/92/45
f 88/95/46 89/96/46 87/94/46
f 90/97/47 91/98/47 89/96/47
f 92/99/48 93/100/48 91/98/48
f 94/101/49 95/102/49 93/100/49
f 96/103/50 97/104/50 95/102/50
f 98/105/51 99/106/51 97/104/51
f 100/107/52 101/108/52 99/106/52
f 102/109/53 103/110/53 101/108/53
f 104/111/54 105/112/54 103/110/54
f 106/113/55 107/114/55 105/112/55
f 108/115/56 109/116/56 107/114/56
f 110/117/57 111/118/57 109/116/57
f 112/119/58 113/120/58 111/118/58
f 114/121/59 115/122/59 113/120/59
f 116/123/60 117/124/60 115/122/60
f 118/125/61 119/126/61 117/124/61
f 120/127/62 121/128/62 119/126/62
f 122/129/63 123/130/63 121/128/63
f 124/131/64 125/132/64 123/130/64
f 102/133/65 86/134/65 70/135/65
f 126/136/66 127/137/66 125/132/66
f 128/138/67 65/139/67 127/137/67
f 95/140/68 111/141/68 127/142/68
f 130/143/35 131/144/35 129/145/35
f 132/146/36 133/147/36 131/144/36
f 134/148/37 135/149/37 133/147/37
f 136/150/38 137/151/38 135/149/38
f 138/152/39 139/153/39 137/151/39
f 140/154/40 141/155/40 139/153/40
f 142/156/41 143/157/41 141/155/41
f 144/158/42 145/159/42 143/157/42
f 146/160/43 147/161/43 145/159/43
f 147/161/44 150/162/44 149/163/44
f 150/162/45 151/164/45 149/163/45
f 152/165/46 153/166/46 151/164/46
f 153/166/47 156/167/47 155/168/47
f 156/167/48 157/169/48 155/168/48
f 158/170/49 159/171/49 157/169/49
f 160/172/50 161/173/50 159/171/50
f 162/174/51 163/175/51 161/173/51
f 164/176/52 165/177/52 163/175/52
f 166/178/53 167/179/53 165/177/53
f 168/180/54 169/181/54 167/179/54
f 170/182/55 171/183/55 169/181/55
f 172/184/56 173/185/56 171/183/56
f 173/185/57 176/186/57 175/187/57
f 176/186/58 177/188/58 175/187/58
f 177/188/59 180/189/59 179/190/59
f 180/189/60 181/191/60 179/190/60
f 182/192/61 183/193/61 181/191/61
f 184/194/62 185/195/62 183/193/62
f 186/196/63 187/197/63 185/195/63
f 188/198/64 189/199/64 187/197/64
f 166/200/65 150/201/65 134/202/65
f 190/203/66 191/204/66 189/199/66
f 192/205/67 129/206/67 191/204/67
f 159/207/68 175/208/68 191/209/68
f 194/210/1 195/211/1 193/212/1
f 196/213/2 197/214/2 195/211/2
f 198/215/3 199/216/3 197/214/3
f 200/217/4 201/218/4 199/216/4
f 202/219/5 203/220/5 201/218/5
f 204/221/6 205/222/6 203/220/6
f 206/223/7 207/224/7 205/222/7
f 208/225/8 209/226/8 207/224/8
f 210/227/9 211/228/9 209/226/9
f 212/229/10 213/230/10 211/228/10
f 214/231/11 215/232/11 213/230/11
f 216/233/12 217/234/12 215/232/12
f 218/235/13 219/236/13 217/234/13
f 220/237/14 221/238/14 219/236/14
f 222/239/15 223/240/15 221/238/15
f 224/241/16 225/242/16 223/240/16
f 226/243/17 227/244/17 225/242/17
f 228/245/18 229/246/18 227/244/18
f 230/247/19 231/248/19 229/246/19
f 232/249/20 233/250/20 231/248/20
f 234/251/21 235/252/21 233/250/21
f 236/253/22 237/254/22 235/252/22
f 238/255/23 239/256/23 237/254/23
f 240/257/24 241/258/24 239/256/24
f 242/259/25 243/260/25 241/258/25
f 244/261/26 245/262/26 243/260/26
f 246/263/27 247/264/27 245/262/27
f 248/265/28 249/266/28 247/264/28
f 250/267/29 251/268/29 249/266/29
f 252/269/30 253/270/30 251/268/30
f 230/271/31 214/272/31 198/273/31
f 254/274/32 255/275/32 253/270/32
f 256/276/33 193/277/33 255/275/33
f 223/278/34 239/279/34 255/280/34
f 2/1/1 4/4/1 3/2/1
f 4/4/2 6/6/2 5/5/2
f 6/6/3 8/8/3 7/7/3
f 8/8/4 10/10/4 9/9/4
f 10/10/5 12/12/5 11/11/5
f 12/12/6 14/14/6 13/13/6
f 14/14/7 16/16/7 15/15/7
f 16/16/8 18/18/8 17/17/8
f 18/18/9 20/20/9 19/19/9
f 20/20/10 22/22/10 21/21/10
f 22/22/11 24/24/11 23/23/11
f 24/24/12 26/26/12 25/25/12
f 26/26/13 28/28/13 27/27/13
f 28/28/14 30/30/14 29/29/14
f 30/30/15 32/32/15 31/31/15
f 32/32/16 34/34/16 33/33/16
f 34/34/17 36/36/17 35/35/17
f 36/36/18 38/38/18 37/37/18
f 38/38/19 40/40/19 39/39/19
f 40/40/20 42/42/20 41/41/20
f 42/42/21 44/44/21 43/43/21
f 44/44/22 46/46/22 45/45/22
f 46/46/23 48/48/23 47/47/23
f 48/48/24 50/50/24 49/49/24
f 50/50/25 52/52/25 51/51/25
f 52/52/26 54/54/26 53/53/26
f 54/54/27 56/56/27 55/55/27
f 56/56/28 58/58/28 57/57/28
f 58/58/29 60/60/29 59/59/29
f 60/60/30 62/65/30 61/61/30
f 6/64/31 4/281/31 2/282/31
f 2/282/31 64/283/31 62/284/31
f 62/284/31 60/285/31 58/286/31
f 58/286/31 56/287/31 54/288/31
f 54/288/31 52/289/31 50/290/31
f 50/290/31 48/291/31 46/292/31
f 46/292/31 44/293/31 42/294/31
f 42/294/31 40/295/31 38/62/31
f 38/62/31 36/296/31 34/297/31
f 34/297/31 32/298/31 30/299/31
f 30/299/31 28/300/31 26/301/31
f 26/301/31 24/302/31 22/63/31
f 22/63/31 20/303/31 18/304/31
f 18/304/31 16/305/31 14/306/31
f 14/306/31 12/307/31 10/308/31
f 10/308/31 8/309/31 6/64/31
f 6/64/31 2/282/31 62/284/31
f 62/284/31 58/286/31 54/288/31
f 54/288/31 50/290/31 46/292/31
f 46/292/31 42/294/31 38/62/31
f 38/62/31 34/297/31 30/299/31
f 30/299/31 26/301/31 22/63/31
f 22/63/31 18/304/31 14/306/31
f 14/306/31 10/308/31 6/64/31
f 6/64/31 62/284/31 54/288/31
f 54/288/31 46/292/31 38/62/31
f 38/62/31 30/299/31 22/63/31
f 22/63/31 14/306/31 6/64/31
f 6/64/31 54/288/31 38/62/31
f 62/65/32 64/67/32 63/66/32
f 64/67/33 2/310/33 1/68/33
f 63/71/34 1/311/34 3/312/34
f 3/312/34 5/313/34 7/314/34
f 7/314/34 9/315/34 11/316/34
f 11/316/34 13/317/34 15/318/34
f 15/318/34 17/319/34 19/320/34
f 19/320/34 21/321/34 23/322/34
f 23/322/34 25/323/34 27/324/34
f 27/324/34 29/325/34 31/69/34
f 31/69/34 33/326/34 35/327/34
f 35/327/34 37/328/34 39/329/34
f 39/329/34 41/330/34 43/331/34
f 43/331/34 45/332/34 47/70/34
f 47/70/34 49/333/34 51/334/34
f 51/334/34 53/335/34 55/336/34
f 55/336/34 57/337/34 59/338/34
f 59/338/34 61/339/34 63/71/34
f 63/71/34 3/312/34 7/314/34
f 7/314/34 11/316/34 15/318/34
f 15/318/34 19/320/34 23/322/34
f 23/322/34 27/324/34 31/69/34
f 31/69/34 35/327/34 39/329/34
f 39/329/34 43/331/34 47/70/34
f 47/70/34 51/334/34 55/336/34
f 55/336/34 59/338/34 63/71/34
f 63/71/34 7/314/34 15/318/34
f 15/318/34 23/322/34 31/69/34
f 31/69/34 39/329/34 47/70/34
f 47/70/34 55/336/34 63/71/34
f 63/71/34 15/318/34 31/69/34
f 66/72/35 68/75/35 67/73/35
f 68/75/36 70/77/36 69/76/36
f 70/77/37 72/79/37 71/78/37
f 72/79/38 74/81/38 73/80/38
f 74/81/39 76/83/39 75/82/39
f 76/83/40 78/85/40 77/84/40
f 78/85/41 80/87/41 79/86/41
f 80/87/42 82/89/42 81/88/42
f 82/89/43 84/91/43 83/90/43
f 84/91/44 86/93/44 85/92/44
f 86/93/45 88/95/45 87/94/45
f 88/95/46 90/97/46 89/96/46
f 90/97/47 92/99/47 91/98/47
f 92/99/48 94/101/48 93/100/48
f 94/101/49 96/103/49 95/102/49
f 96/103/50 98/105/50 97/104/50
f 98/105/51 100/107/51 99/106/51
f 100/107/52 102/109/52 101/108/52
f 102/109/53 104/111/53 103/110/53
f 104/111/54 106/113/54 105/112/54
f 106/113/55 108/115/55 107/114/55
f 108/115/56 110/117/56 109/116/56
f 110/117/57 112/119/57 111/118/57
f 112/119/58 114/121/58 113/120/58
f 114/121/59 116/123/59 115/122/59
f 116/123/60 118/125/60 117/124/60
f 118/125/61 120/127/61 119/126/61
f 120/127/62 122/129/62 121/128/62
f 122/129/63 124/131/63 123/130/63
f 124/131/64 126/136/64 125/132/64
f 70/135/65 68/340/65 66/341/65
f 66/341/65 128/342/65 126/343/65
f 126/343/65 124/344/65 122/345/65
f 122/345/65 120/346/65 118/347/65
f 118/347/65 116/348/65 114/349/65
f 114/349/65 112/350/65 110/351/65
f 110/351/65 108/352/65 106/353/65
f 106/353/65 104/354/65 102/133/65
f 102/133/65 100/355/65 98/356/65
f 98/356/65 96/357/65 94/358/65
f 94/358/65 92/359/65 90/360/65
f 90/360/65 88/361/65 86/134/65
f 86/134/65 84/362/65 82/363/65
f 82/363/65 80/364/65 78/365/65
f 78/365/65 76/366/65 74/367/65
f 74/367/65 72/368/65 70/135/65
f 70/135/65 66/341/65 126/343/65
f 126/343/65 122/345/65 118/347/65
f 118/347/65 114/349/65 110/351/65
f 110/351/65 106/353/65 102/133/65
f 102/133/65 98/356/65 94/358/65
f 94/358/65 90/360/65 86/134/65
f 86/134/65 82/363/65 78/365/65
f 78/365/65 74/367/65 70/135/65
f 70/135/65 126/343/65 118/347/65
f 118/347/65 110/351/65 102/133/65
f 102/133/65 94/358/65 86/134/65
f 86/134/65 78/365/65 70/135/65
f 70/135/65 118/347/65 102/133/65
f 126/136/66 128/138/66 127/137/66
f 128/138/67 66/369/67 65/139/67
f 127/142/68 65/370/68 67/371/68
f 67/371/69 69/372/69 71/373/69
f 71/373/68 73/374/68 75/375/68
f 75/375/68 77/376/68 79/377/68
f 79/377/68 81/378/68 83/379/68
f 83/379/68 85/380/68 87/381/68
f 87/381/68 89/382/68 91/383/68
f 91/383/70 93/384/70 95/140/70
f 95/140/68 97/385/68 99/386/68
f 99/386/70 101/387/70 103/388/70
f 103/388/68 105/389/68 107/390/68
f 107/390/68 109/391/68 111/141/68
f 111/141/68 113/392/68 115/393/68
f 115/393/68 117/394/68 119/395/68
f 119/395/68 121/396/68 123/397/68
f 123/397/69 125/398/69 127/142/69
f 127/142/68 67/371/68 71/373/68
f 71/373/68 75/375/68 79/377/68
f 79/377/68 83/379/68 87/381/68
f 87/381/68 91/383/68 95/140/68
f 95/140/68 99/386/68 103/388/68
f 103/388/68 107/390/68 111/141/68
f 111/141/68 115/393/68 119/395/68
f 119/395/68 123/397/68 127/142/68
f 127/142/68 71/373/68 79/377/68
f 79/377/68 87/381/68 95/140/68
f 95/140/68 103/388/68 111/141/68
f 111/141/68 119/395/68 127/142/68
f 127/142/68 79/377/68 95/140/68
f 130/143/35 132/146/35 131/144/35
f 132/146/36 134/148/36 133/147/36
f 134/148/37 136/150/37 135/149/37
f 136/150/38 138/152/38 137/151/38
f 138/152/39 140/154/39 139/153/39
f 140/154/40 142/156/40 141/155/40
f 142/156/41 144/158/41 143/157/41
f 144/158/42 146/160/42 145/159/42
f 146/160/43 148/399/43 147/161/43
f 147/161/44 148/399/44 150/162/44
f 150/162/45 152/165/45 151/164/45
f 152/165/46 154/400/46 153/166/46
f 153/166/47 154/400/47 156/167/47
f 156/167/48 158/170/48 157/169/48
f 158/170/49 160/172/49 159/171/49
f 160/172/50 162/174/50 161/173/50
f 162/174/51 164/176/51 163/175/51
f 164/176/52 166/178/52 165/177/52
f 166/178/53 168/180/53 167/179/53
f 168/180/54 170/182/54 169/181/54
f 170/182/55 172/184/55 171/183/55
f 172/184/56 174/401/56 173/185/56
f 173/185/57 174/401/57 176/186/57
f 176/186/58 178/402/58 177/188/58
f 177/188/59 178/402/59 180/189/59
f 180/189/60 182/192/60 181/191/60
f 182/192/61 184/194/61 183/193/61
f 184/194/62 186/196/62 185/195/62
f 186/196/63 188/198/63 187/197/63
f 188/198/64 190/203/64 189/199/64
f 134/202/65 132/403/65 130/404/65
f 130/404/65 192/405/65 190/406/65
f 190/406/65 188/407/65 186/408/65
f 186/408/65 184/409/65 182/410/65
f 182/410/65 180/411/65 178/412/65
f 178/412/65 176/413/65 174/414/65
f 174/414/65 172/415/65 170/416/65
f 170/416/65 168/417/65 166/200/65
f 166/200/65 164/418/65 162/419/65
f 162/419/65 160/420/65 158/421/65
f 158/421/65 156/422/65 154/423/65
f 154/423/65 152/424/65 150/201/65
f 150/201/65 148/425/65 146/426/65
f 146/426/65 144/427/65 142/428/65
f 142/428/65 140/429/65 138/430/65
f 138/430/65 136/431/65 134/202/65
f 134/202/65 130/404/65 190/406/65
f 190/406/65 186/408/65 182/410/65
f 182/410/65 178/412/65 174/414/65
f 174/414/65 170/416/65 166/200/65
f 166/200/65 162/419/65 158/421/65
f 158/421/65 154/423/65 150/201/65
f 150/201/65 146/426/65 142/428/65
f 142/428/65 138/430/65 134/202/65
f 134/202/65 190/406/65 182/410/65
f 182/410/65 174/414/65 166/200/65
f 166/200/65 158/421/65 150/201/65
f 150/201/65 142/428/65 134/202/65
f 134/202/65 182/410/65 166/200/65
f 190/203/66 192/205/66 191/204/66
f 192/205/67 130/432/67 129/206/67
f 191/209/68 129/433/68 131/434/68
f 131/434/69 133/435/69 135/436/69
f 135/436/68 137/437/68 139/438/68
f 139/438/68 141/439/68 143/440/68
f 143/440/68 145/441/68 147/442/68
f 147/442/68 149/443/68 151/444/68
f 151/444/68 153/445/68 155/446/68
f 155/446/70 157/447/70 159/207/70
f 159/207/68 161/448/68 163/449/68
f 163/449/70 165/450/70 167/451/70
f 167/451/68 169/452/68 171/453/68
f 171/453/68 173/454/68 175/208/68
f 175/208/68 177/455/68 179/456/68
f 179/456/68 181/457/68 183/458/68
f 183/458/68 185/459/68 187/460/68
f 187/460/69 189/461/69 191/209/69
f 191/209/68 131/434/68 135/436/68
f 135/436/68 139/438/68 143/440/68
f 143/440/68 147/442/68 151/444/68
f 151/444/68 155/446/68 159/207/68
f 159/207/68 163/449/68 167/451/68
f 167/451/68 171/453/68 175/208/68
f 175/208/68 179/456/68 183/458/68
f 183/458/68 187/460/68 191/209/68
f 191/209/68 135/436/68 143/440/68
f 143/440/68 151/444/68 159/207/68
f 159/207/68 167/451/68 175/208/68
f 175/208/68 183/458/68 191/209/68
f 191/209/68 143/440/68 159/207/68
f 194/210/1 196/213/1 195/211/1
f 196/213/2 198/215/2 197/214/2
f 198/215/3 200/217/3 199/216/3
f 200/217/4 202/219/4 201/218/4
f 202/219/5 204/221/5 203/220/5
f 204/221/6 206/223/6 205/222/6
f 206/223/7 208/225/7 207/224/7
f 208/225/8 210/227/8 209/226/8
f 210/227/9 212/229/9 211/228/9
f 212/229/10 214/231/10 213/230/10
f 214/231/11 216/233/11 215/232/11
f 216/233/12 218/235/12 217/234/12
f 218/235/13 220/237/13 219/236/13
f 220/237/14 222/239/14 221/238/14
f 222/239/15 224/241/15 223/240/15
f 224/241/16 226/243/16 225/242/16
f 226/243/17 228/245/17 227/244/17
f 228/245/18 230/247/18 229/246/18
f 230/247/19 232/249/19 231/248/19
f 232/249/20 234/251/20 233/250/20
f 234/251/21 236/253/21 235/252/21
f 236/253/22 238/255/22 237/254/22
f 238/255/23 240/257/23 239/256/23
f 240/257/24 242/259/24 241/258/24
f 242/259/25 244/261/25 243/260/25
f 244/261/26 246/263/26 245/262/26
f 246/263/27 248/265/27 247/264/27
f 248/265/28 250/267/28 249/266/28
f 250/267/29 252/269/29 251/268/29
f 252/269/30 254/274/30 253/270/30
f 198/273/31 196/462/31 194/463/31
f 194/463/31 256/464/31 254/465/31
f 254/465/31 252/466/31 250/467/31
f 250/467/31 248/468/31 246/469/31
f 246/469/31 244/470/31 242/471/31
f 242/471/31 240/472/31 238/473/31
f 238/473/31 236/474/31 234/475/31
f 234/475/31 232/476/31 230/271/31
f 230/271/31 228/477/31 226/478/31
f 226/478/31 224/479/31 222/480/31
f 222/480/31 220/481/31 218/482/31
f 218/482/31 216/483/31 214/272/31
f 214/272/31 212/484/31 210/485/31
f 210/485/31 208/486/31 206/487/31
f 206/487/31 204/488/31 202/489/31
f 202/489/31 200/490/31 198/273/31
f 198/273/31 194/463/31 254/465/31
f 254/465/31 250/467/31 246/469/31
f 246/469/31 242/471/31 238/473/31
f 238/473/31 234/475/31 230/271/31
f 230/271/31 226/478/31 222/480/31
f 222/480/31 218/482/31 214/272/31
f 214/272/31 210/485/31 206/487/31
f 206/487/31 202/489/31 198/273/31
f 198/273/31 254/465/31 246/469/31
f 246/469/31 238/473/31 230/271/31
f 230/271/31 222/480/31 214/272/31
f 214/272/31 206/487/31 198/273/31
f 198/273/31 246/469/31 230/271/31
f 254/274/32 256/276/32 255/275/32
f 256/276/33 194/491/33 193/277/33
f 255/280/34 193/492/34 195/493/34
f 195/493/34 197/494/34 199/495/34
f 199/495/34 201/496/34 203/497/34
f 203/497/34 205/498/34 207/499/34
f 207/499/34 209/500/34 211/501/34
f 211/501/34 213/502/34 215/503/34
f 215/503/34 217/504/34 219/505/34
f 219/505/34 221/506/34 223/278/34
f 223/278/34 225/507/34 227/508/34
f 227/508/34 229/509/34 231/510/34
f 231/510/34 233/511/34 235/512/34
f 235/512/34 237/513/34 239/279/34
f 239/279/34 241/514/34 243/515/34
f 243/515/34 245/516/34 247/517/34
f 247/517/34 249/518/34 251/519/34
f 251/519/34 253/520/34 255/280/34
f 255/280/34 195/493/34 199/495/34
f 199/495/34 203/497/34 207/499/34
f 207/499/34 211/501/34 215/503/34
f 215/503/34 219/505/34 223/278/34
f 223/278/34 227/508/34 231/510/34
f 231/510/34 235/512/34 239/279/34
f 239/279/34 243/515/34 247/517/34
f 247/517/34 251/519/34 255/280/34
f 255/280/34 199/495/34 207/499/34
f 207/499/34 215/503/34 223/278/34
f 223/278/34 231/510/34 239/279/34
f 239/279/34 247/517/34 255/280/34
f 255/280/34 207/499/34 223/278/34
